<svg width="151" height="150" viewBox="0 0 151 150" fill="none" xmlns="http://www.w3.org/2000/svg">
<g clip-path="url(#clip0_238_1768)">
<path d="M77.3204 0.326991L72.4397 1.72939L12.308 19.0072L7.42729 20.4096C5.05824 21.0935 3.02939 22.7965 1.78585 25.145C0.542319 27.4936 0.18565 30.2958 0.794097 32.9369L21.958 124.379C22.5718 127.019 24.1003 129.28 26.208 130.665C28.3158 132.051 30.8308 132.448 33.2012 131.77L33.2138 131.767L103.082 111.691L103.094 111.688C105.463 111.004 107.492 109.301 108.736 106.952C109.979 104.604 110.336 101.801 109.728 99.1603L88.5636 7.71783C87.9498 5.0782 86.4214 2.81762 84.3136 1.43204C82.2058 0.0464695 79.6908 -0.350944 77.3204 0.326991Z" fill="#F2F2F2"/>
<path d="M77.9837 3.19398L72.2028 4.85502L13.8713 21.6156L8.09048 23.2766C6.40342 23.7636 4.95863 24.9764 4.07307 26.6488C3.18751 28.3212 2.93352 30.3168 3.36681 32.1976L24.5308 123.64C24.9678 125.52 26.0563 127.13 27.5573 128.116C29.0583 129.103 30.8493 129.386 32.5373 128.903L32.5499 128.9L102.418 108.824L102.43 108.821C104.118 108.334 105.562 107.121 106.448 105.448C107.333 103.776 107.587 101.78 107.154 99.8996L85.9901 8.45717C85.553 6.57744 84.4646 4.96764 82.9637 3.98095C81.4627 2.99425 79.6717 2.71123 77.9837 3.19398Z" fill="white"/>
<path d="M73.619 32.8055L38.2745 42.9611C37.8797 43.0746 37.4607 43.0086 37.1096 42.7778C36.7585 42.547 36.504 42.1702 36.4022 41.7304C36.3004 41.2905 36.3596 40.8236 36.5668 40.4324C36.7739 40.0412 37.1121 39.7577 37.5068 39.6442L72.8513 29.4886C73.2459 29.3756 73.6647 29.4418 74.0155 29.6727C74.3663 29.9035 74.6205 30.2801 74.7223 30.7197C74.824 31.1593 74.765 31.6259 74.5581 32.017C74.3512 32.4081 74.0134 32.6917 73.619 32.8055Z" fill="#F2F2F2"/>
<path d="M81.0538 36.6385L39.5694 48.5583C39.1747 48.6718 38.7556 48.6058 38.4045 48.375C38.0534 48.1442 37.7989 47.7674 37.6971 47.3276C37.5953 46.8877 37.6545 46.4208 37.8617 46.0296C38.0688 45.6384 38.407 45.3549 38.8017 45.2414L80.2861 33.3216C80.6808 33.2082 81.0999 33.2741 81.451 33.5049C81.8021 33.7357 82.0566 34.1125 82.1584 34.5524C82.2602 34.9922 82.201 35.4591 81.9938 35.8503C81.7867 36.2416 81.4485 36.5251 81.0538 36.6385Z" fill="#F2F2F2"/>
<path d="M79.4237 57.8896L44.0792 68.0452C43.8837 68.1014 43.6802 68.1141 43.4804 68.0827C43.2805 68.0512 43.0881 67.9762 42.9143 67.8619C42.7404 67.7476 42.5885 67.5963 42.4671 67.4166C42.3457 67.2369 42.2573 67.0323 42.2069 66.8145C42.1565 66.5967 42.1451 66.37 42.1733 66.1473C42.2015 65.9246 42.2689 65.7102 42.3714 65.5165C42.474 65.3228 42.6098 65.1535 42.7711 65.0182C42.9324 64.883 43.116 64.7845 43.3115 64.7283L78.656 54.5727C78.8514 54.5165 79.0549 54.5038 79.2548 54.5353C79.4547 54.5667 79.647 54.6417 79.8209 54.756C79.9948 54.8703 80.1467 55.0216 80.2681 55.2014C80.3895 55.3811 80.4779 55.5857 80.5283 55.8035C80.5787 56.0213 80.5901 56.248 80.5619 56.4707C80.5336 56.6934 80.4663 56.9077 80.3637 57.1014C80.2612 57.2951 80.1254 57.4645 79.9641 57.5997C79.8028 57.7349 79.6191 57.8334 79.4237 57.8896Z" fill="#F2F2F2"/>
<path d="M86.8585 61.7226L45.3741 73.6424C45.1786 73.6986 44.9752 73.7113 44.7753 73.6799C44.5754 73.6484 44.3831 73.5734 44.2092 73.4591C44.0353 73.3448 43.8834 73.1935 43.762 73.0138C43.6406 72.8341 43.5522 72.6295 43.5018 72.4117C43.4514 72.1939 43.44 71.9672 43.4682 71.7445C43.4965 71.5218 43.5638 71.3074 43.6664 71.1137C43.7689 70.92 43.9047 70.7507 44.066 70.6155C44.2273 70.4802 44.411 70.3817 44.6064 70.3255L86.0908 58.4057C86.4855 58.2923 86.9046 58.3582 87.2557 58.589C87.6068 58.8198 87.8613 59.1966 87.9631 59.6365C88.0649 60.0763 88.0057 60.5432 87.7985 60.9344C87.5914 61.3257 87.2532 61.6092 86.8585 61.7226Z" fill="#F2F2F2"/>
<path d="M85.2293 82.9736L49.8848 93.1292C49.4902 93.2423 49.0714 93.1762 48.7205 92.9453C48.3696 92.7145 48.1153 92.3378 48.0135 91.8982C47.9118 91.4585 47.9709 90.9918 48.1778 90.6007C48.3848 90.2096 48.7226 89.926 49.1171 89.8123L84.4616 79.6567C84.8564 79.5433 85.2754 79.6092 85.6265 79.84C85.9776 80.0708 86.2321 80.4476 86.3339 80.8874C86.4357 81.3273 86.3765 81.7942 86.1693 82.1854C85.9622 82.5766 85.624 82.8602 85.2293 82.9736Z" fill="#F2F2F2"/>
<path d="M92.6645 86.8067L51.1801 98.7266C50.9846 98.7829 50.781 98.7958 50.581 98.7645C50.381 98.7332 50.1885 98.6583 50.0145 98.544C49.8405 98.4297 49.6884 98.2784 49.5669 98.0986C49.4454 97.9188 49.3569 97.7141 49.3065 97.4962C49.2561 97.2782 49.2447 97.0514 49.273 96.8286C49.3013 96.6057 49.3687 96.3913 49.4714 96.1975C49.5741 96.0038 49.7101 95.8344 49.8715 95.6993C50.033 95.5641 50.2168 95.4657 50.4124 95.4097L91.8968 83.4898C92.2915 83.3764 92.7106 83.4423 93.0617 83.6731C93.4128 83.904 93.6673 84.2807 93.7691 84.7206C93.8709 85.1604 93.8117 85.6273 93.6045 86.0185C93.3974 86.4098 93.0592 86.6933 92.6645 86.8067Z" fill="#F2F2F2"/>
<path d="M32.2397 53.3743L19.7316 56.9683C19.5423 57.0224 19.3415 56.9907 19.1732 56.88C19.0049 56.7694 18.8828 56.5889 18.8338 56.3781L15.9626 43.9725C15.914 43.7616 15.9425 43.5379 16.0418 43.3503C16.1411 43.1628 16.3031 43.0268 16.4923 42.9722L29.0004 39.3782C29.1896 39.3241 29.3905 39.3558 29.5588 39.4665C29.7271 39.5771 29.8491 39.7576 29.8981 39.9684L32.7693 52.374C32.8179 52.5849 32.7895 52.8086 32.6902 52.9962C32.5909 53.1837 32.4289 53.3197 32.2397 53.3743Z" fill="#E6E6E6"/>
<path d="M38.0463 78.4584L25.5383 82.0524C25.349 82.1065 25.1481 82.0748 24.9798 81.9641C24.8115 81.8535 24.6895 81.673 24.6405 81.4622L21.7693 69.0566C21.7207 68.8457 21.7492 68.622 21.8485 68.4345C21.9478 68.2469 22.1098 68.1109 22.2989 68.0563L34.807 64.4623C34.9963 64.4082 35.1971 64.4399 35.3654 64.5506C35.5337 64.6612 35.6558 64.8417 35.7048 65.0525L38.576 77.4581C38.6246 77.669 38.5961 77.8927 38.4968 78.0803C38.3975 78.2678 38.2355 78.4038 38.0463 78.4584Z" fill="#E6E6E6"/>
<path d="M43.851 103.542L31.3429 107.136C31.1537 107.19 30.9528 107.159 30.7845 107.048C30.6162 106.937 30.4942 106.757 30.4452 106.546L27.574 94.1406C27.5254 93.9297 27.5538 93.706 27.6531 93.5184C27.7524 93.3309 27.9144 93.1949 28.1036 93.1403L40.6117 89.5463C40.801 89.4922 41.0018 89.5239 41.1701 89.6346C41.3384 89.7452 41.4605 89.9257 41.5095 90.1365L44.3807 102.542C44.4293 102.753 44.4008 102.977 44.3015 103.164C44.2022 103.352 44.0402 103.488 43.851 103.542Z" fill="#E6E6E6"/>
<path d="M126.067 23.5065H53.8869C51.4396 23.5095 49.0933 24.5941 47.3629 26.5222C45.6324 28.4504 44.659 31.0646 44.6562 33.7914V128.225C44.659 130.952 45.6324 133.566 47.3629 135.495C49.0933 137.423 51.4396 138.507 53.8869 138.51H126.067C128.514 138.507 130.86 137.423 132.591 135.495C134.321 133.566 135.294 130.952 135.297 128.225V33.7914C135.294 31.0646 134.321 28.4504 132.591 26.5222C130.86 24.5941 128.514 23.5095 126.067 23.5065Z" fill="#E6E6E6"/>
<path d="M126.068 26.4673H53.8878C52.145 26.4695 50.4742 27.2418 49.2419 28.6149C48.0096 29.9879 47.3164 31.8496 47.3145 33.7914V128.225C47.3164 130.167 48.0096 132.029 49.2419 133.402C50.4742 134.775 52.145 135.547 53.8878 135.55H126.068C127.81 135.547 129.481 134.775 130.713 133.402C131.946 132.029 132.639 130.167 132.641 128.225V33.7914C132.639 31.8496 131.946 29.988 130.713 28.6149C129.481 27.2418 127.81 26.4695 126.068 26.4673Z" fill="white"/>
<path d="M133.649 150C142.955 150 150.499 141.594 150.499 131.225C150.499 120.856 142.955 112.451 133.649 112.451C124.343 112.451 116.799 120.856 116.799 131.225C116.799 141.594 124.343 150 133.649 150Z" fill="#6C63FF"/>
<path d="M141.708 128.776H135.847V122.246C135.847 121.597 135.615 120.974 135.203 120.515C134.791 120.055 134.232 119.797 133.649 119.797C133.066 119.797 132.507 120.055 132.095 120.515C131.683 120.974 131.451 121.597 131.451 122.246V128.776H125.59C125.008 128.776 124.448 129.034 124.036 129.494C123.624 129.953 123.393 130.576 123.393 131.225C123.393 131.875 123.624 132.498 124.036 132.957C124.448 133.416 125.008 133.674 125.59 133.674H131.451V140.204C131.451 140.854 131.683 141.477 132.095 141.936C132.507 142.395 133.066 142.653 133.649 142.653C134.232 142.653 134.791 142.395 135.203 141.936C135.615 141.477 135.847 140.854 135.847 140.204V133.674H141.708C142.291 133.674 142.85 133.416 143.262 132.957C143.674 132.498 143.906 131.875 143.906 131.225C143.906 130.576 143.674 129.953 143.262 129.494C142.85 129.034 142.291 128.776 141.708 128.776Z" fill="white"/>
<path d="M115.204 78.3585H78.7029C78.5009 78.3588 78.3009 78.3147 78.1142 78.2287C77.9275 78.1427 77.7578 78.0166 77.6149 77.8576C77.472 77.6985 77.3586 77.5096 77.2812 77.3017C77.2039 77.0938 77.1641 76.8709 77.1641 76.6458C77.1641 76.4207 77.2039 76.1979 77.2812 75.9899C77.3586 75.782 77.472 75.5931 77.6149 75.4341C77.7578 75.275 77.9275 75.1489 78.1142 75.0629C78.3009 74.977 78.5009 74.9329 78.7029 74.9331H115.204C115.611 74.9336 116.002 75.1143 116.29 75.4354C116.577 75.7566 116.739 76.1919 116.739 76.6458C116.739 77.0997 116.577 77.5351 116.29 77.8562C116.002 78.1774 115.611 78.358 115.204 78.3585Z" fill="#E6E6E6"/>
<path d="M121.544 84.139H78.7029C78.5009 84.1393 78.3009 84.0952 78.1142 84.0092C77.9275 83.9233 77.7578 83.7971 77.6149 83.6381C77.472 83.479 77.3586 83.2901 77.2812 83.0822C77.2039 82.8743 77.1641 82.6514 77.1641 82.4263C77.1641 82.2013 77.2039 81.9784 77.2812 81.7705C77.3586 81.5625 77.472 81.3736 77.6149 81.2146C77.7578 81.0555 77.9275 80.9294 78.1142 80.8434C78.3009 80.7575 78.5009 80.7134 78.7029 80.7136H121.544C121.952 80.7136 122.343 80.8941 122.631 81.2153C122.92 81.5365 123.082 81.9721 123.082 82.4263C123.082 82.8806 122.92 83.3162 122.631 83.6374C122.343 83.9586 121.952 84.139 121.544 84.139Z" fill="#E6E6E6"/>
<path d="M115.204 104.263H78.7029C78.5009 104.264 78.3009 104.219 78.1142 104.133C77.9275 104.048 77.7578 103.921 77.6149 103.762C77.472 103.603 77.3586 103.414 77.2812 103.206C77.2039 102.999 77.1641 102.776 77.1641 102.551C77.1641 102.326 77.2039 102.103 77.2812 101.895C77.3586 101.687 77.472 101.498 77.6149 101.339C77.7578 101.18 77.9275 101.054 78.1142 100.968C78.3009 100.882 78.5009 100.838 78.7029 100.838H115.204C115.611 100.838 116.002 101.018 116.291 101.34C116.579 101.661 116.741 102.096 116.741 102.551C116.741 103.005 116.579 103.44 116.291 103.762C116.002 104.083 115.611 104.263 115.204 104.263Z" fill="#E6E6E6"/>
<path d="M121.544 110.044H78.7029C78.5009 110.044 78.3009 110 78.1142 109.914C77.9275 109.828 77.7578 109.702 77.6149 109.543C77.472 109.384 77.3586 109.195 77.2812 108.987C77.2039 108.779 77.1641 108.556 77.1641 108.331C77.1641 108.106 77.2039 107.883 77.2812 107.675C77.3586 107.467 77.472 107.278 77.6149 107.119C77.7578 106.96 77.9275 106.834 78.1142 106.748C78.3009 106.662 78.5009 106.618 78.7029 106.618H121.544C121.746 106.618 121.947 106.662 122.133 106.748C122.32 106.834 122.49 106.96 122.633 107.119C122.775 107.278 122.889 107.467 122.966 107.675C123.044 107.883 123.083 108.106 123.083 108.331C123.083 108.556 123.044 108.779 122.966 108.987C122.889 109.195 122.775 109.384 122.633 109.543C122.49 109.702 122.32 109.828 122.133 109.914C121.947 110 121.746 110.044 121.544 110.044Z" fill="#E6E6E6"/>
<path d="M70.5274 86.763H57.6101C57.4147 86.7628 57.2273 86.6762 57.0892 86.5222C56.951 86.3682 56.8733 86.1595 56.873 85.9418V73.1303C56.8733 72.9126 56.951 72.7038 57.0892 72.5499C57.2273 72.3959 57.4147 72.3093 57.6101 72.3091H70.5274C70.7228 72.3093 70.9102 72.3959 71.0483 72.5499C71.1865 72.7038 71.2643 72.9126 71.2645 73.1303V85.9418C71.2643 86.1595 71.1865 86.3682 71.0483 86.5222C70.9102 86.6762 70.7228 86.7628 70.5274 86.763Z" fill="#E6E6E6"/>
<path d="M70.5274 112.668H57.6101C57.4147 112.668 57.2273 112.581 57.0892 112.427C56.951 112.273 56.8733 112.064 56.873 111.847V99.0351C56.8733 98.8174 56.951 98.6086 57.0892 98.4547C57.2273 98.3007 57.4147 98.2141 57.6101 98.2139H70.5274C70.7228 98.2141 70.9102 98.3007 71.0483 98.4547C71.1865 98.6086 71.2643 98.8174 71.2645 99.0351V111.847C71.2643 112.064 71.1865 112.273 71.0483 112.427C70.9102 112.581 70.7228 112.668 70.5274 112.668Z" fill="#E6E6E6"/>
<path d="M115.245 49.5215H88.334C87.9263 49.5215 87.5354 49.341 87.2471 49.0198C86.9588 48.6987 86.7969 48.263 86.7969 47.8088C86.7969 47.3545 86.9588 46.9189 87.2471 46.5977C87.5354 46.2765 87.9263 46.0961 88.334 46.0961H115.245C115.652 46.0961 116.043 46.2765 116.332 46.5977C116.62 46.9189 116.782 47.3545 116.782 47.8088C116.782 48.263 116.62 48.6987 116.332 49.0198C116.043 49.341 115.652 49.5215 115.245 49.5215Z" fill="#CCCCCC"/>
<path d="M121.585 55.3019H88.334C88.1322 55.3019 87.9323 55.2576 87.7458 55.1715C87.5593 55.0854 87.3898 54.9593 87.2471 54.8002C87.1044 54.6412 86.9911 54.4524 86.9139 54.2446C86.8366 54.0368 86.7969 53.8141 86.7969 53.5892C86.7969 53.3643 86.8366 53.1415 86.9139 52.9337C86.9911 52.726 87.1044 52.5371 87.2471 52.3781C87.3898 52.2191 87.5593 52.0929 87.7458 52.0068C87.9323 51.9208 88.1322 51.8765 88.334 51.8765H121.585C121.993 51.8765 122.384 52.0569 122.672 52.3781C122.961 52.6993 123.122 53.1349 123.122 53.5892C123.122 54.0434 122.961 54.479 122.672 54.8002C122.384 55.1214 121.993 55.3019 121.585 55.3019Z" fill="#CCCCCC"/>
<path d="M82.3783 62.307H57.5691C57.3737 62.3068 57.1863 62.2202 57.0482 62.0662C56.91 61.9123 56.8322 61.7035 56.832 61.4858V39.9122C56.8322 39.6944 56.91 39.4857 57.0482 39.3317C57.1863 39.1778 57.3737 39.0912 57.5691 39.0909H82.3783C82.5737 39.0912 82.7611 39.1778 82.8992 39.3317C83.0374 39.4857 83.1151 39.6944 83.1154 39.9122V61.4858C83.1151 61.7035 83.0374 61.9123 82.8992 62.0662C82.7611 62.2202 82.5737 62.3068 82.3783 62.307Z" fill="#6C63FF"/>
</g>
<defs>
<clipPath id="clip0_238_1768">
<rect width="150" height="150" fill="white" transform="translate(0.5)"/>
</clipPath>
</defs>
</svg>
