<svg width="427" height="459" viewBox="0 0 427 459" fill="none" xmlns="http://www.w3.org/2000/svg">
<g clip-path="url(#clip0_219_1047)">
<path d="M270.725 260.421L86.5809 307.906C80.3346 309.509 73.7082 308.565 68.1555 305.282C62.6029 301.999 58.5774 296.645 56.9623 290.394L1.27226 73.8353C-0.328731 67.5804 0.613365 60.9449 3.89188 55.3847C7.17039 49.8245 12.5176 45.7935 18.7603 44.1762L190.077 0L233.925 19.6565L288.213 230.762C289.814 237.017 288.872 243.653 285.594 249.213C282.315 254.773 276.968 258.804 270.725 260.421Z" fill="#F2F2F2"/>
<path d="M20.5044 50.966C16.0588 52.1177 12.251 54.9882 9.91629 58.9478C7.58158 62.9074 6.9107 67.6326 8.05081 72.0869L63.7409 288.645C64.891 293.097 67.7576 296.91 71.7118 299.248C75.6659 301.586 80.3847 302.257 84.8329 301.116L268.977 253.632C273.423 252.48 277.231 249.609 279.565 245.65C281.9 241.69 282.571 236.965 281.431 232.511L227.984 24.676L189.449 7.40137L20.5044 50.966Z" fill="white"/>
<path d="M233.456 20.7737L204.957 28.1225C202.877 28.659 200.669 28.3459 198.819 27.2521C196.969 26.1583 195.628 24.3734 195.093 22.2901L189.672 1.21249C189.649 1.12021 189.651 1.0231 189.68 0.932305C189.709 0.841506 189.763 0.760691 189.835 0.699126C189.908 0.63756 189.997 0.597737 190.091 0.584225C190.185 0.570713 190.281 0.584056 190.368 0.622728L233.535 19.8194C233.631 19.8622 233.712 19.9338 233.765 20.0243C233.819 20.1149 233.843 20.2199 233.834 20.3248C233.825 20.4297 233.784 20.5292 233.717 20.6097C233.649 20.6901 233.558 20.7475 233.456 20.7737Z" fill="#F2F2F2"/>
<path d="M218.463 205.71L134.625 227.329C134.11 227.462 133.573 227.491 133.047 227.417C132.52 227.342 132.013 227.164 131.555 226.893C131.097 226.623 130.697 226.264 130.377 225.839C130.058 225.413 129.825 224.928 129.692 224.412C129.56 223.897 129.53 223.36 129.604 222.832C129.679 222.305 129.857 221.798 130.127 221.339C130.397 220.88 130.755 220.48 131.181 220.159C131.606 219.839 132.09 219.606 132.605 219.473L216.443 197.855C216.958 197.722 217.494 197.692 218.021 197.767C218.547 197.841 219.054 198.019 219.512 198.29C219.97 198.561 220.371 198.919 220.69 199.345C221.01 199.77 221.243 200.255 221.375 200.771C221.508 201.287 221.538 201.823 221.463 202.351C221.389 202.878 221.211 203.386 220.941 203.844C220.67 204.303 220.312 204.704 219.887 205.024C219.462 205.344 218.978 205.577 218.463 205.71Z" fill="#CCCCCC"/>
<path d="M238.053 214.793L138.035 240.584C136.995 240.853 135.891 240.696 134.966 240.149C134.041 239.602 133.37 238.71 133.103 237.668C132.835 236.626 132.991 235.521 133.537 234.595C134.083 233.668 134.975 232.997 136.015 232.729L236.032 206.938C237.072 206.671 238.176 206.828 239.1 207.375C240.024 207.922 240.694 208.814 240.961 209.855C241.229 210.896 241.073 212.001 240.528 212.927C239.982 213.853 239.092 214.524 238.053 214.793Z" fill="#CCCCCC"/>
<path d="M100.407 253.366C108.313 253.366 114.722 246.949 114.722 239.032C114.722 231.115 108.313 224.697 100.407 224.697C92.501 224.697 86.0918 231.115 86.0918 239.032C86.0918 246.949 92.501 253.366 100.407 253.366Z" fill="#E6E6E6"/>
<path d="M209.548 168.194L98.2025 196.896C94.9846 197.721 91.571 197.235 88.7107 195.544C85.8504 193.852 83.7769 191.094 82.9452 187.873L59.6113 97.1024C58.7868 93.8801 59.2724 90.4618 60.9616 87.5976C62.6508 84.7334 65.4056 82.6571 68.6217 81.8243L179.967 53.1229C183.185 52.2973 186.599 52.7836 189.459 54.4751C192.319 56.1666 194.393 58.9252 195.225 62.1456L218.559 152.916C219.383 156.139 218.897 159.557 217.208 162.421C215.519 165.285 212.764 167.362 209.548 168.194Z" fill="white"/>
<path d="M209.548 168.194L98.2025 196.896C94.9846 197.721 91.571 197.235 88.7107 195.544C85.8504 193.852 83.7769 191.094 82.9452 187.873L59.6113 97.1024C58.7868 93.8801 59.2724 90.4618 60.9616 87.5976C62.6508 84.7334 65.4056 82.6571 68.6217 81.8243L179.967 53.1229C183.185 52.2973 186.599 52.7836 189.459 54.4751C192.319 56.1666 194.393 58.9252 195.225 62.1456L218.559 152.916C219.383 156.139 218.897 159.557 217.208 162.421C215.519 165.285 212.764 167.362 209.548 168.194ZM68.9892 83.2537C66.1515 83.9886 63.7208 85.8206 62.2303 88.3479C60.7399 90.8751 60.3113 93.8912 61.0388 96.7344L84.3727 187.505C85.1066 190.347 86.9361 192.781 89.4599 194.273C91.9837 195.766 94.9957 196.195 97.835 195.466L209.181 166.765C212.018 166.03 214.449 164.198 215.94 161.671C217.43 159.144 217.859 156.128 217.131 153.284L193.797 62.5136C193.063 59.672 191.234 57.238 188.71 55.7455C186.186 54.253 183.174 53.8239 180.335 54.5524L68.9892 83.2537Z" fill="#E6E6E6"/>
<path d="M174.319 83.6436L118.124 98.1288C117.633 98.2661 117.108 98.2116 116.655 97.9761C116.202 97.7407 115.856 97.3419 115.686 96.8604C115.606 96.6089 115.579 96.3439 115.605 96.0815C115.632 95.8191 115.711 95.5648 115.839 95.3342C115.967 95.1036 116.14 94.9014 116.349 94.7401C116.557 94.5788 116.796 94.4617 117.051 94.396L174.254 79.6509C176.565 80.8234 175.957 83.2212 174.319 83.6436Z" fill="#F2F2F2"/>
<path d="M176.856 93.514L120.661 107.999C120.17 108.137 119.645 108.082 119.192 107.847C118.739 107.611 118.393 107.212 118.223 106.731C118.143 106.479 118.116 106.214 118.143 105.952C118.169 105.689 118.249 105.435 118.376 105.205C118.504 104.974 118.677 104.772 118.886 104.611C119.094 104.449 119.333 104.332 119.588 104.266L176.791 89.5214C179.102 90.6938 178.494 93.0916 176.856 93.514Z" fill="#F2F2F2"/>
<path d="M109.959 116.75L92.8088 121.171C92.2487 121.315 91.6545 121.23 91.1566 120.936C90.6587 120.642 90.2978 120.161 90.1531 119.601L84.9434 99.3346C84.7998 98.7737 84.8843 98.1787 85.1783 97.6801C85.4724 97.1816 85.9519 96.8202 86.5117 96.6753L103.662 92.2545C104.222 92.111 104.816 92.1957 105.314 92.4901C105.812 92.7845 106.173 93.2645 106.317 93.825L111.527 114.091C111.671 114.652 111.586 115.247 111.292 115.746C110.998 116.244 110.519 116.606 109.959 116.75Z" fill="#E6E6E6"/>
<path d="M181.889 113.766L96.1259 135.873C95.6347 136.01 95.1096 135.956 94.657 135.72C94.2043 135.485 93.8578 135.086 93.6875 134.605C93.6083 134.353 93.581 134.088 93.6074 133.826C93.6338 133.563 93.7134 133.309 93.8411 133.078C93.9689 132.848 94.1423 132.646 94.3507 132.484C94.5591 132.323 94.798 132.206 95.0531 132.14L181.825 109.773C184.136 110.945 183.528 113.343 181.889 113.766Z" fill="#F2F2F2"/>
<path d="M184.427 123.639L98.6631 145.746C98.1718 145.884 97.6468 145.829 97.1941 145.593C96.7415 145.358 96.395 144.959 96.2247 144.478C96.1454 144.226 96.1181 143.961 96.1445 143.699C96.1709 143.436 96.2505 143.182 96.3783 142.952C96.506 142.721 96.6794 142.519 96.8878 142.358C97.0962 142.196 97.3352 142.079 97.5902 142.013L184.362 119.646C186.673 120.819 186.065 123.217 184.427 123.639Z" fill="#F2F2F2"/>
<path d="M186.964 133.506L101.2 155.613C100.709 155.75 100.184 155.696 99.7312 155.46C99.2785 155.225 98.9321 154.826 98.7618 154.345C98.6825 154.093 98.6552 153.828 98.6816 153.566C98.7081 153.303 98.7876 153.049 98.9154 152.818C99.0431 152.588 99.2165 152.386 99.4249 152.224C99.6333 152.063 99.8723 151.946 100.127 151.88L186.899 129.513C189.21 130.686 188.602 133.084 186.964 133.506Z" fill="#F2F2F2"/>
<path d="M189.501 143.379L103.737 165.486C103.246 165.623 102.721 165.568 102.268 165.333C101.816 165.097 101.469 164.699 101.299 164.217C101.22 163.966 101.192 163.701 101.219 163.438C101.245 163.176 101.325 162.922 101.452 162.691C101.58 162.46 101.754 162.258 101.962 162.097C102.17 161.936 102.409 161.819 102.664 161.753L189.437 139.386C191.747 140.558 191.139 142.956 189.501 143.379Z" fill="#F2F2F2"/>
<path d="M192.038 153.246L106.274 175.353C105.783 175.491 105.258 175.436 104.805 175.2C104.353 174.965 104.006 174.566 103.836 174.085C103.757 173.833 103.729 173.568 103.756 173.306C103.782 173.043 103.862 172.789 103.99 172.559C104.117 172.328 104.291 172.126 104.499 171.965C104.707 171.803 104.946 171.686 105.202 171.62L191.974 149.253C194.284 150.426 193.676 152.824 192.038 153.246Z" fill="#F2F2F2"/>
<path d="M101.463 244.056C101.151 244.137 100.822 244.115 100.524 243.992L100.505 243.984L96.6056 242.328C96.4246 242.252 96.2605 242.14 96.1227 242C95.9848 241.859 95.876 241.693 95.8023 241.511C95.7287 241.328 95.6917 241.133 95.6934 240.936C95.6952 240.74 95.7357 240.545 95.8126 240.364C95.8895 240.183 96.0013 240.019 96.1416 239.881C96.2819 239.743 96.448 239.634 96.6303 239.561C96.8126 239.487 97.0076 239.451 97.2042 239.453C97.4007 239.455 97.5949 239.496 97.7756 239.573L100.303 240.649L103.614 232.849C103.691 232.668 103.802 232.504 103.942 232.366C104.083 232.229 104.248 232.12 104.43 232.046C104.612 231.973 104.807 231.936 105.003 231.938C105.2 231.94 105.393 231.98 105.574 232.057L105.555 232.108L105.575 232.057C105.94 232.213 106.228 232.507 106.376 232.875C106.524 233.243 106.52 233.655 106.366 234.02L102.47 243.192C102.38 243.404 102.242 243.591 102.067 243.741C101.893 243.89 101.686 243.998 101.464 244.054L101.463 244.056Z" fill="white"/>
<path d="M341.354 342.946H151.203C144.754 342.939 138.572 340.37 134.013 335.805C129.453 331.239 126.888 325.048 126.881 318.591V94.9679C126.888 88.5108 129.453 82.3203 134.013 77.7544C138.572 73.1885 144.754 70.6202 151.203 70.6129H328.108L365.676 100.598V318.591C365.669 325.048 363.104 331.239 358.544 335.805C353.985 340.37 347.803 342.939 341.354 342.946Z" fill="#E6E6E6"/>
<path d="M151.203 77.6242C146.611 77.6294 142.208 79.4583 138.961 82.7098C135.714 85.9612 133.888 90.3697 133.883 94.9679V318.591C133.888 323.189 135.714 327.598 138.961 330.849C142.208 334.101 146.611 335.93 151.203 335.935H341.355C345.947 335.93 350.349 334.101 353.596 330.849C356.843 327.598 358.67 323.189 358.675 318.591V103.976L325.659 77.6242H151.203Z" fill="white"/>
<path d="M304.37 142.648H217.796C216.722 142.648 215.692 142.221 214.932 141.46C214.173 140.699 213.746 139.668 213.746 138.592C213.746 137.516 214.173 136.485 214.932 135.724C215.692 134.964 216.722 134.536 217.796 134.536H304.37C305.444 134.536 306.474 134.964 307.234 135.724C307.993 136.485 308.42 137.516 308.42 138.592C308.42 139.668 307.993 140.699 307.234 141.46C306.474 142.221 305.444 142.648 304.37 142.648Z" fill="#005DB9"/>
<path d="M321.077 156.336H217.797C216.723 156.335 215.695 155.907 214.936 155.146C214.178 154.386 213.752 153.355 213.752 152.28C213.752 151.206 214.178 150.175 214.936 149.414C215.695 148.654 216.723 148.226 217.797 148.225H321.077C321.61 148.224 322.137 148.328 322.629 148.532C323.121 148.735 323.568 149.034 323.945 149.411C324.321 149.787 324.62 150.235 324.824 150.727C325.028 151.219 325.133 151.747 325.133 152.28C325.133 152.813 325.028 153.341 324.824 153.834C324.62 154.326 324.321 154.773 323.945 155.15C323.568 155.527 323.121 155.825 322.629 156.029C322.137 156.232 321.61 156.337 321.077 156.336Z" fill="#005DB9"/>
<path d="M304.371 195.877H217.8C216.726 195.877 215.696 196.305 214.936 197.065C214.177 197.826 213.75 198.857 213.75 199.933C213.75 201.008 214.177 202.04 214.936 202.801C215.696 203.561 216.726 203.988 217.8 203.988H304.371C305.445 203.988 306.475 203.561 307.234 202.801C307.994 202.04 308.421 201.008 308.421 199.933C308.421 198.857 307.994 197.826 307.234 197.065C306.475 196.305 305.445 195.877 304.371 195.877Z" fill="#CCCCCC"/>
<path d="M321.079 209.568H217.8C216.726 209.568 215.696 209.995 214.936 210.756C214.177 211.516 213.75 212.548 213.75 213.623C213.75 214.699 214.177 215.73 214.936 216.491C215.696 217.252 216.726 217.679 217.8 217.679H321.079C322.153 217.679 323.183 217.252 323.943 216.491C324.702 215.73 325.129 214.699 325.129 213.623C325.129 212.548 324.702 211.516 323.943 210.756C323.183 209.995 322.153 209.568 321.079 209.568Z" fill="#CCCCCC"/>
<path d="M304.37 265.335H217.796C216.722 265.335 215.692 264.907 214.932 264.147C214.173 263.386 213.746 262.354 213.746 261.279C213.746 260.203 214.173 259.172 214.932 258.411C215.692 257.65 216.722 257.223 217.796 257.223H304.37C305.444 257.223 306.474 257.65 307.234 258.411C307.993 259.172 308.42 260.203 308.42 261.279C308.42 262.354 307.993 263.386 307.234 264.147C306.474 264.907 305.444 265.335 304.37 265.335Z" fill="#CCCCCC"/>
<path d="M321.077 279.023H217.797C216.723 279.021 215.695 278.593 214.936 277.833C214.178 277.073 213.752 276.042 213.752 274.967C213.752 273.892 214.178 272.862 214.936 272.101C215.695 271.341 216.723 270.913 217.797 270.911H321.077C321.61 270.911 322.137 271.015 322.629 271.218C323.121 271.422 323.568 271.721 323.945 272.097C324.321 272.474 324.62 272.921 324.824 273.414C325.028 273.906 325.133 274.434 325.133 274.967C325.133 275.5 325.028 276.028 324.824 276.52C324.62 277.013 324.321 277.46 323.945 277.837C323.568 278.214 323.121 278.512 322.629 278.716C322.137 278.919 321.61 279.024 321.077 279.023Z" fill="#CCCCCC"/>
<path d="M181.745 159.771C189.651 159.771 196.06 153.353 196.06 145.436C196.06 137.519 189.651 131.101 181.745 131.101C173.839 131.101 167.43 137.519 167.43 145.436C167.43 153.353 173.839 159.771 181.745 159.771Z" fill="#005DB9"/>
<path d="M180.326 150.904C180.004 150.905 179.691 150.801 179.433 150.607L179.417 150.595L176.053 148.018C175.897 147.899 175.765 147.75 175.667 147.579C175.568 147.409 175.504 147.221 175.478 147.026C175.452 146.831 175.465 146.632 175.515 146.442C175.566 146.252 175.654 146.073 175.773 145.917C175.893 145.761 176.042 145.63 176.213 145.531C176.383 145.433 176.571 145.369 176.766 145.344C176.961 145.318 177.159 145.331 177.349 145.382C177.538 145.434 177.716 145.522 177.872 145.642L180.051 147.315L185.201 140.588C185.32 140.432 185.469 140.301 185.639 140.203C185.809 140.105 185.996 140.041 186.191 140.015C186.385 139.989 186.583 140.002 186.773 140.053C186.962 140.104 187.14 140.191 187.296 140.311L187.264 140.356L187.297 140.311C187.611 140.553 187.817 140.91 187.869 141.303C187.921 141.697 187.814 142.095 187.574 142.41L181.517 150.319C181.377 150.501 181.197 150.649 180.99 150.75C180.784 150.851 180.557 150.903 180.328 150.903L180.326 150.904Z" fill="white"/>
<path d="M197.531 206.778C197.532 208.661 197.162 210.525 196.443 212.265C195.724 214.004 194.67 215.585 193.341 216.917C192.012 218.249 190.434 219.305 188.697 220.026C186.96 220.747 185.098 221.118 183.218 221.118C183.095 221.12 182.972 221.116 182.85 221.103C180.035 221.031 177.304 220.129 174.999 218.51C172.693 216.892 170.916 214.628 169.889 212.003C168.862 209.377 168.63 206.507 169.224 203.751C169.818 200.995 171.21 198.475 173.227 196.508C175.244 194.54 177.795 193.212 180.562 192.689C183.329 192.166 186.188 192.471 188.782 193.568C191.376 194.664 193.59 196.502 195.146 198.852C196.702 201.201 197.532 203.959 197.531 206.778Z" fill="#CCCCCC"/>
<path d="M181.745 282.458C189.651 282.458 196.06 276.04 196.06 268.123C196.06 260.206 189.651 253.788 181.745 253.788C173.839 253.788 167.43 260.206 167.43 268.123C167.43 276.04 173.839 282.458 181.745 282.458Z" fill="#CCCCCC"/>
<path d="M364.945 101.563H335.516C333.368 101.563 331.308 100.709 329.789 99.1875C328.269 97.6663 327.416 95.6031 327.416 93.4518V71.6865C327.416 71.5912 327.443 71.4979 327.493 71.4172C327.544 71.3364 327.616 71.2716 327.702 71.2301C327.788 71.1886 327.883 71.1722 327.978 71.1826C328.072 71.1931 328.162 71.23 328.237 71.2892L365.259 100.659C365.342 100.724 365.402 100.814 365.431 100.915C365.461 101.016 365.458 101.124 365.423 101.223C365.389 101.322 365.324 101.409 365.238 101.47C365.153 101.531 365.05 101.563 364.945 101.563Z" fill="#CCCCCC"/>
<path d="M197.532 206.778C197.533 208.661 197.163 210.525 196.444 212.265C195.725 214.004 194.671 215.585 193.342 216.917C192.013 218.249 190.435 219.305 188.698 220.026C186.961 220.747 185.1 221.118 183.219 221.118C183.096 221.12 182.973 221.116 182.851 221.103C181.001 216.484 180.288 211.487 180.772 206.534C181.256 201.582 182.922 196.818 185.629 192.645C188.959 193.216 191.98 194.948 194.159 197.535C196.337 200.121 197.532 203.395 197.532 206.778Z" fill="#005DB9"/>
<path d="M213.746 199.937C213.748 198.861 214.176 197.829 214.935 197.068C215.695 196.308 216.725 195.879 217.8 195.877H239.372C240.632 198.444 241.528 201.174 242.033 203.988H217.8C216.726 203.988 215.696 203.561 214.936 202.802C214.176 202.042 213.748 201.012 213.746 199.937Z" fill="#005DB9"/>
<path d="M242.535 209.568C242.536 212.307 242.174 215.035 241.458 217.679H217.8C216.726 217.679 215.696 217.252 214.936 216.491C214.177 215.73 213.75 214.699 213.75 213.623C213.75 212.548 214.177 211.516 214.936 210.756C215.696 209.995 216.726 209.568 217.8 209.568H242.535Z" fill="#005DB9"/>
<path d="M295.912 259.59C295.301 260.592 294.317 261.311 293.178 261.587C292.038 261.864 290.835 261.676 289.834 261.064L238.239 229.55C237.743 229.247 237.311 228.85 236.969 228.38C236.627 227.91 236.38 227.377 236.243 226.812C236.107 226.247 236.083 225.66 236.172 225.086C236.262 224.511 236.464 223.96 236.766 223.464C237.068 222.967 237.465 222.535 237.935 222.193C238.404 221.85 238.936 221.603 239.5 221.466C240.064 221.329 240.65 221.305 241.224 221.395C241.798 221.484 242.348 221.686 242.844 221.989L294.439 253.503C295.44 254.115 296.158 255.1 296.434 256.241C296.71 257.383 296.522 258.587 295.912 259.59Z" fill="#3F3D56"/>
<path d="M244.315 228.076C240.672 234.057 235.339 238.822 228.991 241.769C222.643 244.715 215.564 245.711 208.651 244.629C201.738 243.547 195.301 240.437 190.153 235.692C185.005 230.946 181.378 224.779 179.731 217.969C178.083 211.16 178.49 204.014 180.898 197.436C183.306 190.857 187.608 185.142 193.26 181.012C198.912 176.882 205.661 174.523 212.651 174.233C219.642 173.943 226.562 175.736 232.536 179.385C240.537 184.285 246.271 192.163 248.48 201.291C250.688 210.419 249.191 220.052 244.315 228.076ZM191.462 195.793C188.729 200.279 187.386 205.476 187.603 210.726C187.82 215.977 189.587 221.045 192.68 225.29C195.774 229.534 200.054 232.765 204.981 234.574C209.909 236.383 215.261 236.688 220.361 235.45C225.461 234.213 230.08 231.489 233.634 227.623C237.188 223.757 239.518 218.922 240.328 213.73C241.138 208.538 240.393 203.223 238.186 198.455C235.979 193.687 232.41 189.682 227.93 186.946C221.92 183.284 214.706 182.16 207.869 183.818C201.032 185.477 195.132 189.783 191.462 195.793Z" fill="#3F3D56"/>
<path d="M357.663 215.308C367.66 215.308 375.765 207.193 375.765 197.181C375.765 187.17 367.66 179.055 357.663 179.055C347.665 179.055 339.561 187.17 339.561 197.181C339.561 207.193 347.665 215.308 357.663 215.308Z" fill="#A0616A"/>
<path d="M356.493 298.802C356.144 297.713 356.029 296.562 356.155 295.425C356.281 294.288 356.645 293.19 357.225 292.204C357.804 291.218 358.584 290.366 359.515 289.703C360.447 289.04 361.507 288.582 362.627 288.358C362.982 288.288 363.342 288.244 363.703 288.225L382.771 257.58L365.353 240.998C364.688 240.365 364.154 239.606 363.783 238.765C363.412 237.923 363.212 237.017 363.192 236.098C363.173 235.178 363.336 234.264 363.672 233.409C364.008 232.553 364.509 231.772 365.148 231.111C365.787 230.451 366.55 229.923 367.393 229.56C368.237 229.196 369.144 229.003 370.062 228.992C370.98 228.982 371.891 229.153 372.743 229.497C373.594 229.841 374.369 230.351 375.023 230.996L399.072 254.741L399.12 254.8C399.864 255.934 400.223 257.277 400.144 258.631C400.065 259.985 399.553 261.278 398.682 262.317L371.965 293.959C372.045 294.212 372.111 294.47 372.164 294.73C372.387 295.852 372.372 297.009 372.118 298.124C371.864 299.24 371.377 300.289 370.69 301.203C370.003 302.117 369.13 302.875 368.13 303.428C367.13 303.981 366.024 304.315 364.886 304.411C364.656 304.431 364.427 304.441 364.199 304.441C362.485 304.434 360.817 303.885 359.433 302.872C358.05 301.859 357.021 300.435 356.493 298.802Z" fill="#A0616A"/>
<path d="M327.85 449.461L318.814 449.461L314.516 414.561L327.851 414.561L327.85 449.461Z" fill="#A0616A"/>
<path d="M330.154 458.232L301.02 458.231V457.862C301.02 456.371 301.313 454.894 301.883 453.516C302.453 452.138 303.288 450.887 304.341 449.832C305.394 448.778 306.644 447.941 308.02 447.371C309.396 446.8 310.871 446.506 312.36 446.506L330.155 446.507L330.154 458.232Z" fill="#2F2E41"/>
<path d="M417.66 436.951L409.896 441.58L388.371 413.796L399.83 406.964L417.66 436.951Z" fill="#A0616A"/>
<path d="M424.121 443.307L399.088 458.232L398.899 457.915C398.137 456.634 397.635 455.215 397.421 453.739C397.206 452.263 397.285 450.76 397.651 449.314C398.017 447.869 398.663 446.509 399.554 445.314C400.445 444.119 401.562 443.111 402.841 442.348L418.131 433.232L424.121 443.307Z" fill="#2F2E41"/>
<path d="M313.375 434.091C307.322 362.719 303.721 296.416 325.848 269.368L326.02 269.158L363.258 284.074L363.319 284.208C363.445 284.482 375.83 311.761 372.941 330.109L382.126 372.419L412.075 422.635C412.317 423.04 412.469 423.491 412.523 423.958C412.577 424.426 412.531 424.9 412.388 425.349C412.245 425.797 412.008 426.21 411.694 426.56C411.379 426.91 410.994 427.189 410.564 427.379L397.549 433.113C396.814 433.433 395.989 433.478 395.225 433.239C394.46 432.999 393.807 432.492 393.386 431.81L360.806 378.613L342.404 337.81C342.304 337.589 342.135 337.406 341.921 337.291C341.707 337.176 341.461 337.135 341.222 337.173C340.982 337.212 340.762 337.328 340.595 337.504C340.428 337.681 340.323 337.907 340.297 338.149L330.097 434.164C330.012 434.98 329.627 435.735 329.018 436.284C328.409 436.833 327.618 437.136 326.799 437.134H316.681C315.851 437.129 315.052 436.815 314.441 436.252C313.83 435.69 313.45 434.919 313.375 434.091Z" fill="#2F2E41"/>
<path d="M325.974 269.934L325.797 269.849L325.769 269.653C324.378 259.904 326.025 249.071 330.663 237.457C332.949 231.772 337.199 227.099 342.637 224.289C348.076 221.479 354.342 220.719 360.293 222.148C363.721 222.994 366.936 224.543 369.735 226.698C372.534 228.853 374.855 231.567 376.552 234.668C378.227 237.736 379.247 241.12 379.548 244.604C379.849 248.088 379.425 251.597 378.301 254.908C372.453 272.03 364.868 288.051 364.792 288.211L364.633 288.545L325.974 269.934Z" fill="#005DB9"/>
<path d="M285.345 245.65C286.242 244.941 287.278 244.43 288.385 244.15C289.493 243.87 290.647 243.827 291.773 244.025C292.898 244.223 293.969 244.657 294.915 245.298C295.861 245.939 296.661 246.773 297.263 247.746C297.452 248.054 297.619 248.376 297.763 248.708L333.107 255.861L342.517 233.718C342.877 232.872 343.4 232.105 344.057 231.463C344.714 230.82 345.491 230.315 346.345 229.975C347.198 229.635 348.11 229.468 349.028 229.483C349.946 229.498 350.852 229.695 351.694 230.063C352.535 230.431 353.296 230.962 353.931 231.625C354.567 232.289 355.065 233.072 355.396 233.93C355.728 234.787 355.887 235.702 355.863 236.621C355.84 237.54 355.635 238.446 355.26 239.285L341.47 270.157L341.432 270.223C340.632 271.318 339.501 272.125 338.207 272.525C336.913 272.926 335.524 272.897 334.247 272.445L295.294 258.466C295.084 258.629 294.867 258.782 294.641 258.923C293.67 259.525 292.583 259.915 291.45 260.068C290.318 260.22 289.167 260.131 288.071 259.806C286.975 259.482 285.961 258.929 285.093 258.185C284.226 257.44 283.525 256.521 283.038 255.486C282.938 255.277 282.849 255.066 282.769 254.852C282.175 253.242 282.105 251.485 282.568 249.833C283.03 248.18 284.002 246.716 285.345 245.65Z" fill="#A0616A"/>
<path d="M423.058 216.594C421.314 213.5 418.774 210.666 415.415 209.523C411.078 208.046 406.382 209.618 401.923 210.668C398.487 211.477 394.898 211.972 391.435 211.29C387.972 210.607 384.631 208.589 383.056 205.427C380.738 200.775 382.691 195.227 382.55 190.03C382.477 187.2 381.764 184.425 380.465 181.911C379.165 179.398 377.313 177.213 375.047 175.521C372.782 173.829 370.162 172.674 367.386 172.143C364.61 171.613 361.75 171.72 359.021 172.457C354.751 171.223 350.885 171.109 348.244 174.396C344.921 174.396 341.734 175.717 339.385 178.07C337.035 180.423 335.715 183.615 335.715 186.942H347.695C347.127 190.001 347.777 193.161 349.504 195.748C351.619 198.859 355.297 201.11 356.005 204.806C356.691 208.388 354.259 211.787 351.708 214.391C349.158 216.994 346.199 219.574 345.403 223.134C344.915 225.835 345.469 228.622 346.953 230.931C348.435 233.211 350.273 235.239 352.397 236.935C361.967 245.145 373.342 250.972 385.591 253.94C394.217 256.019 403.652 256.558 411.66 252.733C414.863 251.202 417.718 249.028 420.047 246.346C422.376 243.665 424.13 240.532 425.199 237.143C426.268 233.753 426.629 230.18 426.261 226.645C425.893 223.11 424.802 219.689 423.058 216.594Z" fill="#2F2E41"/>
<path d="M425.764 459H285.729C285.534 459 285.346 458.922 285.208 458.784C285.07 458.645 284.992 458.458 284.992 458.262C284.992 458.066 285.07 457.879 285.208 457.74C285.346 457.602 285.534 457.524 285.729 457.524H425.764C425.959 457.524 426.146 457.602 426.285 457.74C426.423 457.879 426.501 458.066 426.501 458.262C426.501 458.458 426.423 458.645 426.285 458.784C426.146 458.922 425.959 459 425.764 459Z" fill="#CCCCCC"/>
</g>
<defs>
<clipPath id="clip0_219_1047">
<rect width="426" height="459" fill="white" transform="translate(0.5)"/>
</clipPath>
</defs>
</svg>
