<svg width="44" height="44" viewBox="0 0 44 44" fill="none" xmlns="http://www.w3.org/2000/svg">
<g clip-path="url(#clip0_384_2236)">
<path d="M19.2308 36.39H0.871794C0.64066 36.3897 0.419067 36.2881 0.25563 36.1074C0.0921934 35.9268 0.000260126 35.6818 0 35.4264V7.87864C0.000260126 7.62317 0.0921934 7.37824 0.25563 7.19759C0.419067 7.01694 0.64066 6.91533 0.871794 6.91504H19.2308C19.4619 6.91533 19.6835 7.01694 19.8469 7.19759C20.0104 7.37824 20.1023 7.62317 20.1026 7.87864V35.4264C20.1023 35.6818 20.0104 35.9268 19.8469 36.1074C19.6835 36.2881 19.4619 36.3897 19.2308 36.39Z" fill="white"/>
<path d="M9.22366 14.0848C9.22367 14.8805 8.99596 15.6557 8.57312 16.2995C8.15029 16.9434 7.55401 17.4229 6.86963 17.6694C6.84917 17.6766 6.82872 17.6838 6.80794 17.6907C6.71929 17.7208 6.62939 17.7465 6.53794 17.7685C6.37245 17.8082 6.20447 17.8339 6.03546 17.8456C5.962 17.851 5.88812 17.8538 5.81382 17.8538C5.42993 17.8542 5.04875 17.7828 4.6864 17.6427C4.67586 17.6386 4.66533 17.6345 4.6551 17.6304C4.06801 17.396 3.55038 16.9881 3.15861 16.4509C2.76685 15.9138 2.51598 15.2681 2.43334 14.5843C2.35069 13.9004 2.43945 13.2046 2.68994 12.5726C2.94043 11.9407 3.34304 11.3968 3.85389 11.0004C4.36475 10.6039 4.96425 10.37 5.58708 10.3242C6.20991 10.2784 6.83216 10.4224 7.38603 10.7406C7.93991 11.0588 8.40416 11.5388 8.72819 12.1285C9.05222 12.7182 9.2236 13.3949 9.22366 14.0848Z" fill="white"/>
<path d="M5.73213 16.5815C6.64838 16.5815 7.39114 15.7605 7.39114 14.7478C7.39114 13.7351 6.64838 12.9141 5.73213 12.9141C4.81588 12.9141 4.07311 13.7351 4.07311 14.7478C4.07311 15.7605 4.81588 16.5815 5.73213 16.5815Z" fill="#005DB9"/>
<path d="M5.82898 15.7359L5.8307 15.6674C5.71537 15.6638 5.61368 15.6558 5.53728 15.5941C5.51562 15.5756 5.49781 15.5522 5.48507 15.5254C5.47233 15.4987 5.46496 15.4692 5.46346 15.439C5.46211 15.4205 5.46464 15.402 5.47084 15.3848C5.47704 15.3676 5.48674 15.3522 5.49919 15.3398C5.52806 15.3204 5.56111 15.3101 5.59487 15.3097C5.62863 15.3094 5.66184 15.3191 5.69101 15.3379L5.74231 15.3639L5.64394 14.5693L5.58252 14.5786L5.66619 15.2545C5.63194 15.2405 5.59505 15.2361 5.5589 15.2419C5.52274 15.2476 5.48845 15.2633 5.45918 15.2875C5.43948 15.3065 5.42403 15.3302 5.41402 15.3569C5.40402 15.3836 5.39974 15.4125 5.40151 15.4414C5.40332 15.482 5.41313 15.5216 5.43027 15.5575C5.44741 15.5935 5.47145 15.6249 5.50071 15.6495C5.59888 15.7288 5.72646 15.7327 5.82898 15.7359Z" fill="#181819"/>
<path d="M5.27876 14.6372H4.94485V14.7057H5.27876V14.6372Z" fill="#181819"/>
<path d="M6.33271 14.6372H5.99881V14.7057H6.33271V14.6372Z" fill="#181819"/>
<path d="M6.20347 17.3115C6.20787 17.289 6.21015 17.266 6.21029 17.243C6.21017 17.1567 6.1791 17.074 6.1239 17.013C6.0687 16.952 5.99387 16.9176 5.91581 16.9175H5.48183C5.40375 16.9176 5.32888 16.9519 5.27367 17.0129C5.21846 17.0739 5.18741 17.1567 5.18734 17.243C5.18732 17.2661 5.18961 17.2892 5.19415 17.3118C5.03033 17.3689 4.87547 17.4536 4.73507 17.563C4.70778 17.5839 4.68083 17.6065 4.65509 17.6302C4.66533 17.6343 4.67586 17.6384 4.6864 17.6425C5.04875 17.7826 5.42993 17.854 5.81382 17.8535C5.88821 17.8535 5.96209 17.8508 6.03545 17.8453C6.20447 17.8337 6.37245 17.8079 6.53794 17.7682C6.62939 17.7463 6.71928 17.7206 6.80794 17.6905C6.63254 17.519 6.42665 17.3899 6.20347 17.3115Z" fill="#181819"/>
<path d="M6.14768 17.8016C6.10745 17.8049 6.06872 17.8199 6.03546 17.8452C6.20447 17.8335 6.37245 17.8078 6.53794 17.7681L6.14768 17.8016Z" fill="#181819"/>
<path d="M7.23675 14.3126L4.35469 13.1472C4.32381 13.1348 4.29868 13.1092 4.28483 13.0763C4.27098 13.0433 4.26955 13.0056 4.28085 12.9715L4.2906 12.9205C4.51568 12.2404 5.26172 11.8124 5.87699 12.0612L6.76386 12.4198C7.37913 12.6686 7.64654 13.4739 7.42145 14.154L7.3958 14.231C7.3845 14.2651 7.36139 14.2929 7.33157 14.3082C7.30174 14.3235 7.26764 14.3251 7.23675 14.3126Z" fill="#181819"/>
<path d="M7.392 14.3771C3.37498 14.5409 3.02397 13.983 4.24793 13.1057L4.50759 12.5776L7.48345 13.7768L7.392 14.3771Z" fill="#181819"/>
<path d="M6.60434 12.3359C6.62651 12.2544 6.53152 12.1507 6.39216 12.1044C6.2528 12.0581 6.12184 12.0867 6.09967 12.1683C6.07749 12.2498 6.17249 12.3535 6.31185 12.3998C6.45121 12.4461 6.58216 12.4175 6.60434 12.3359Z" fill="#181819"/>
<path d="M5.81382 17.9564C5.41946 17.9569 5.02787 17.8836 4.65565 17.7396L4.6233 17.7268C3.84362 17.4154 3.18915 16.8084 2.77628 16.0138C2.36341 15.2192 2.2189 14.2885 2.36845 13.3872C2.518 12.4859 2.95192 11.6724 3.59304 11.0914C4.23416 10.5105 5.04091 10.1997 5.86984 10.2144C6.69876 10.229 7.49611 10.5682 8.1201 11.1715C8.74408 11.7748 9.15424 12.6032 9.27764 13.5093C9.40104 14.4154 9.22967 15.3406 8.79402 16.1202C8.35837 16.8998 7.68667 17.4833 6.89839 17.7671C6.87635 17.7748 6.85562 17.7821 6.83455 17.789C6.7465 17.819 6.65309 17.8459 6.55765 17.8688C6.38754 17.9095 6.21489 17.936 6.04117 17.948C5.96654 17.9536 5.88986 17.9564 5.81382 17.9564ZM5.81382 10.4186C5.03331 10.4187 4.27784 10.723 3.68027 11.278C3.0827 11.8329 2.68131 12.603 2.54669 13.4528C2.41207 14.3026 2.55285 15.1776 2.94426 15.924C3.33567 16.6704 3.95265 17.2403 4.68668 17.5336L4.71739 17.5457C5.06977 17.6819 5.44049 17.7513 5.81382 17.7508C5.88569 17.7508 5.95815 17.7482 6.02918 17.7429C6.19369 17.7315 6.35719 17.7064 6.51828 17.6679C6.60856 17.6462 6.69682 17.6208 6.78059 17.5923C6.80134 17.5855 6.82103 17.5785 6.84073 17.5716C7.59153 17.3013 8.23047 16.7439 8.64271 15.9995C9.05494 15.2551 9.21343 14.3726 9.08968 13.5106C8.96593 12.6486 8.56806 11.8637 7.96759 11.2969C7.36712 10.7301 6.60344 10.4187 5.81382 10.4186Z" fill="#CCCCCC"/>
<path d="M19.2308 36.39H0.871794C0.64066 36.3897 0.419067 36.2881 0.25563 36.1074C0.0921934 35.9268 0.000260126 35.6818 0 35.4264V7.87864C0.000260126 7.62317 0.0921934 7.37824 0.25563 7.19759C0.419067 7.01694 0.64066 6.91533 0.871794 6.91504H19.2308C19.4619 6.91533 19.6835 7.01694 19.8469 7.19759C20.0104 7.37824 20.1023 7.62317 20.1026 7.87864V35.4264C20.1023 35.6818 20.0104 35.9268 19.8469 36.1074C19.6835 36.2881 19.4619 36.3897 19.2308 36.39ZM0.871794 7.0284C0.667852 7.02866 0.472331 7.11832 0.328123 7.27772C0.183914 7.43711 0.102795 7.65322 0.102564 7.87864V35.4264C0.102795 35.6518 0.183912 35.8679 0.328121 36.0273C0.472329 36.1867 0.667852 36.2764 0.871794 36.2766H19.2308C19.4347 36.2764 19.6302 36.1867 19.7744 36.0273C19.9186 35.8679 19.9998 35.6518 20 35.4264V7.87864C19.9998 7.65322 19.9186 7.43711 19.7744 7.27772C19.6302 7.11832 19.4347 7.02866 19.2308 7.0284H0.871794Z" fill="#CCCCCC"/>
<path d="M15.6767 14.0701H10.4817C10.3728 14.07 10.2684 14.0221 10.1915 13.9369C10.1145 13.8517 10.0713 13.7363 10.0713 13.6159C10.0713 13.4955 10.1145 13.38 10.1915 13.2949C10.2684 13.2097 10.3728 13.1618 10.4817 13.1616H15.6767C15.7307 13.1615 15.7842 13.1732 15.8341 13.196C15.884 13.2188 15.9294 13.2523 15.9676 13.2945C16.0058 13.3367 16.0362 13.3868 16.0568 13.4419C16.0775 13.4971 16.0882 13.5562 16.0882 13.6159C16.0882 13.6756 16.0775 13.7347 16.0568 13.7899C16.0362 13.845 16.0058 13.8951 15.9676 13.9373C15.9294 13.9795 15.884 14.0129 15.8341 14.0357C15.7842 14.0585 15.7307 14.0702 15.6767 14.0701Z" fill="#E6E6E6"/>
<path d="M17.372 15.6033H10.4817C10.3728 15.6032 10.2684 15.5553 10.1915 15.4701C10.1145 15.3849 10.0713 15.2695 10.0713 15.1491C10.0713 15.0287 10.1145 14.9132 10.1915 14.8281C10.2684 14.7429 10.3728 14.695 10.4817 14.6948H17.372C17.4809 14.695 17.5853 14.7429 17.6623 14.8281C17.7392 14.9132 17.7825 15.0287 17.7825 15.1491C17.7825 15.2695 17.7392 15.3849 17.6623 15.4701C17.5853 15.5553 17.4809 15.6032 17.372 15.6033Z" fill="#E6E6E6"/>
<path d="M15.6691 21.4832H2.73058C2.67657 21.4833 2.62307 21.4716 2.57315 21.4488C2.52323 21.426 2.47786 21.3926 2.43964 21.3504C2.40142 21.3082 2.37111 21.2581 2.35042 21.2029C2.32974 21.1478 2.31909 21.0887 2.31909 21.029C2.31909 20.9693 2.32974 20.9101 2.35042 20.855C2.37111 20.7998 2.40142 20.7497 2.43964 20.7076C2.47786 20.6654 2.52323 20.6319 2.57315 20.6091C2.62307 20.5863 2.67657 20.5746 2.73058 20.5747H15.6691C15.778 20.5749 15.8824 20.6228 15.9594 20.708C16.0364 20.7931 16.0796 20.9086 16.0796 21.029C16.0796 21.1493 16.0364 21.2648 15.9594 21.35C15.8824 21.4352 15.778 21.4831 15.6691 21.4832Z" fill="#E6E6E6"/>
<path d="M17.3644 23.0164H2.73058C2.67657 23.0165 2.62307 23.0048 2.57315 22.982C2.52323 22.9592 2.47786 22.9258 2.43964 22.8836C2.40142 22.8414 2.37111 22.7913 2.35042 22.7361C2.32974 22.681 2.31909 22.6219 2.31909 22.5622C2.31909 22.5025 2.32974 22.4434 2.35042 22.3882C2.37111 22.3331 2.40142 22.283 2.43964 22.2408C2.47786 22.1986 2.52323 22.1651 2.57315 22.1423C2.62307 22.1195 2.67657 22.1078 2.73058 22.1079H17.3644C17.4184 22.1078 17.4719 22.1195 17.5218 22.1423C17.5718 22.1651 17.6171 22.1986 17.6554 22.2408C17.6936 22.283 17.7239 22.3331 17.7446 22.3882C17.7653 22.4434 17.7759 22.5025 17.7759 22.5622C17.7759 22.6219 17.7653 22.681 17.7446 22.7361C17.7239 22.7913 17.6936 22.8414 17.6554 22.8836C17.6171 22.9258 17.5718 22.9592 17.5218 22.982C17.4719 23.0048 17.4184 23.0165 17.3644 23.0164Z" fill="#E6E6E6"/>
<path d="M15.6691 26.5404H2.73058C2.62158 26.5404 2.51705 26.4925 2.43997 26.4073C2.3629 26.3221 2.3196 26.2066 2.3196 26.0861C2.3196 25.9656 2.3629 25.8501 2.43997 25.7649C2.51705 25.6797 2.62158 25.6318 2.73058 25.6318H15.6691C15.7781 25.6318 15.8827 25.6797 15.9597 25.7649C16.0368 25.8501 16.0801 25.9656 16.0801 26.0861C16.0801 26.2066 16.0368 26.3221 15.9597 26.4073C15.8827 26.4925 15.7781 26.5404 15.6691 26.5404Z" fill="#E6E6E6"/>
<path d="M17.3644 28.0731H2.73058C2.62158 28.0731 2.51705 28.0252 2.43997 27.94C2.3629 27.8548 2.3196 27.7393 2.3196 27.6188C2.3196 27.4983 2.3629 27.3828 2.43997 27.2976C2.51705 27.2124 2.62158 27.1646 2.73058 27.1646H17.3644C17.4734 27.1646 17.5779 27.2124 17.655 27.2976C17.7321 27.3828 17.7754 27.4983 17.7754 27.6188C17.7754 27.7393 17.7321 27.8548 17.655 27.94C17.5779 28.0252 17.4734 28.0731 17.3644 28.0731Z" fill="#E6E6E6"/>
<path d="M15.6691 31.597H2.73058C2.62158 31.597 2.51705 31.5491 2.43997 31.4639C2.3629 31.3788 2.3196 31.2632 2.3196 31.1427C2.3196 31.0223 2.3629 30.9067 2.43997 30.8215C2.51705 30.7363 2.62158 30.6885 2.73058 30.6885H15.6691C15.7781 30.6885 15.8827 30.7363 15.9597 30.8215C16.0368 30.9067 16.0801 31.0223 16.0801 31.1427C16.0801 31.2632 16.0368 31.3788 15.9597 31.4639C15.8827 31.5491 15.7781 31.597 15.6691 31.597Z" fill="#E6E6E6"/>
<path d="M17.3644 33.1302H2.73058C2.62158 33.1302 2.51705 33.0823 2.43997 32.9972C2.3629 32.912 2.3196 32.7964 2.3196 32.6759C2.3196 32.5555 2.3629 32.4399 2.43997 32.3547C2.51705 32.2695 2.62158 32.2217 2.73058 32.2217H17.3644C17.4734 32.2217 17.5779 32.2695 17.655 32.3547C17.7321 32.4399 17.7754 32.5555 17.7754 32.6759C17.7754 32.7964 17.7321 32.912 17.655 32.9972C17.5779 33.0823 17.4734 33.1302 17.3644 33.1302Z" fill="#E6E6E6"/>
<path d="M43.1282 29.4749L24.7692 29.475C24.5381 29.4747 24.3165 29.3731 24.1531 29.1924C23.9896 29.0118 23.8977 28.7668 23.8974 28.5114L23.8974 0.963621C23.8977 0.708146 23.9896 0.463216 24.153 0.282568C24.3165 0.101919 24.5381 0.000303653 24.7692 1.59484e-05L43.1282 0C43.3593 0.000287335 43.5809 0.101901 43.7443 0.28255C43.9078 0.463198 43.9997 0.708127 44 0.963603L44 28.5113C43.9997 28.7668 43.9078 29.0117 43.7444 29.1924C43.5809 29.373 43.3593 29.4746 43.1282 29.4749Z" fill="white"/>
<path d="M43.1282 29.4749L24.7692 29.475C24.5381 29.4747 24.3165 29.3731 24.1531 29.1924C23.9896 29.0118 23.8977 28.7668 23.8974 28.5114L23.8974 0.963621C23.8977 0.708146 23.9896 0.463216 24.153 0.282568C24.3165 0.101919 24.5381 0.000303653 24.7692 1.59484e-05L43.1282 0C43.3593 0.000287335 43.5809 0.101901 43.7443 0.28255C43.9078 0.463198 43.9997 0.708127 44 0.963603L44 28.5113C43.9997 28.7668 43.9078 29.0117 43.7444 29.1924C43.5809 29.373 43.3593 29.4746 43.1282 29.4749ZM24.7692 0.113381C24.5653 0.113637 24.3697 0.203298 24.2255 0.362693C24.0813 0.522089 24.0002 0.738202 24 0.963621L24 28.5113C24.0002 28.7368 24.0814 28.9529 24.2256 29.1123C24.3698 29.2717 24.5653 29.3613 24.7692 29.3616L43.1282 29.3616C43.3321 29.3613 43.5277 29.2717 43.6719 29.1123C43.8161 28.9529 43.8972 28.7368 43.8974 28.5113L43.8974 0.963604C43.8972 0.738185 43.8161 0.522072 43.6719 0.362676C43.5276 0.203281 43.3321 0.11362 43.1282 0.113365L24.7692 0.113381Z" fill="#CCCCCC"/>
<path d="M33.1297 7.13172C33.1297 7.87715 32.9297 8.60583 32.555 9.22563C32.1804 9.84543 31.6478 10.3285 31.0248 10.6138C30.4017 10.899 29.7161 10.9737 29.0546 10.8282C28.3932 10.6828 27.7856 10.3239 27.3087 9.79677C26.8319 9.26967 26.5071 8.59811 26.3755 7.86701C26.244 7.13591 26.3115 6.3781 26.5696 5.68942C26.8277 5.00074 27.2647 4.41211 27.8254 3.99797C28.3862 3.58384 29.0455 3.36279 29.7199 3.36279C30.6241 3.36311 31.4913 3.76029 32.1307 4.46703C32.7701 5.17378 33.1294 6.13224 33.1297 7.13172Z" fill="white"/>
<path d="M31.2958 7.77693C31.2586 10.1874 28.0147 10.187 27.9778 7.77686C28.015 5.3665 31.2589 5.36687 31.2958 7.77693Z" fill="#005DB9"/>
<path d="M29.571 8.52495L29.5692 8.45642C29.9965 8.51948 30.0886 7.93414 29.6576 8.15297L29.756 7.3584L29.8174 7.3677L29.7337 8.04359C30.1875 7.96894 30.0196 8.59343 29.571 8.52495Z" fill="#181819"/>
<path d="M30.4551 7.42578H30.1212V7.49431H30.4551V7.42578Z" fill="#181819"/>
<path d="M29.4011 7.42578H29.0672V7.49431H29.4011V7.42578Z" fill="#181819"/>
<path d="M30.1746 10.3405C30.2397 9.85498 29.7254 9.95092 29.4533 9.94612C29.4094 9.94628 29.3661 9.95724 29.3265 9.97823C29.287 9.99922 29.2521 10.0297 29.2246 10.0674C29.197 10.1052 29.1774 10.1493 29.1672 10.1964C29.157 10.2436 29.1565 10.2927 29.1656 10.3401C28.955 10.4121 28.7599 10.5311 28.5924 10.6896C29.2981 10.9616 30.0648 10.971 30.7757 10.7164C30.6024 10.5443 30.3973 10.4161 30.1746 10.3405Z" fill="#181819"/>
<path d="M28.8568 6.90938C29.1643 6.71297 29.5371 6.86365 29.8547 6.94603C30.4573 7.15077 31.3023 6.89439 31.3755 6.10102C31.4518 5.36316 30.5386 4.95193 30.2467 5.68631L30.3317 5.67403C29.3851 4.1191 27.7385 4.17807 27.7494 6.31583C27.7459 6.38187 27.8389 6.38165 27.8424 6.31579C27.8075 5.05604 28.5618 4.19492 29.628 5.00449C29.8662 5.21054 30.0761 5.45352 30.2514 5.72591C30.3625 5.86346 30.3866 5.27109 30.9181 5.42625C31.503 5.67671 31.3121 6.60244 30.7893 6.80567C30.1434 7.17044 29.4438 6.4632 28.8099 6.82058C28.7997 6.8277 28.7924 6.83892 28.7895 6.85188C28.7867 6.86484 28.7885 6.87852 28.7946 6.89004C28.8006 6.90156 28.8105 6.91001 28.8222 6.91362C28.8338 6.91722 28.8462 6.9157 28.8568 6.90938Z" fill="#181819"/>
<path d="M29.7199 11.0035C28.8393 11.0027 27.9914 10.635 27.3452 9.97385C26.699 9.31265 26.3021 8.40652 26.2335 7.43618C26.165 6.46584 26.4299 5.5026 26.9754 4.73857C27.5209 3.97453 28.3069 3.46586 29.1767 3.31399C30.0465 3.16213 30.9361 3.37823 31.6681 3.91921C32.4001 4.46018 32.9208 5.28627 33.1262 6.23272C33.3316 7.17916 33.2066 8.17641 32.7763 9.02556C32.346 9.87472 31.6419 10.5134 30.8044 10.8142C30.4542 10.9401 30.0882 11.004 29.7199 11.0035ZM29.7199 3.46567C29.0637 3.46557 28.4223 3.68054 27.8767 4.0834C27.3311 4.48626 26.9058 5.05891 26.6547 5.72892C26.4035 6.39894 26.3378 7.13623 26.4658 7.84754C26.5938 8.55885 26.9097 9.21224 27.3737 9.72506C27.8377 10.2379 28.4288 10.5871 29.0723 10.7286C29.7159 10.87 30.3829 10.7974 30.9891 10.5198C31.5953 10.2422 32.1134 9.77216 32.4778 9.1691C32.8423 8.56604 33.0368 7.85705 33.0367 7.13181C33.0357 6.15983 32.6859 5.22797 32.0641 4.54067C31.4423 3.85337 30.5992 3.46677 29.7199 3.46567Z" fill="#CCCCCC"/>
<path d="M39.5741 7.15461L34.3792 7.15462C34.2702 7.15462 34.1656 7.10676 34.0885 7.02157C34.0115 6.93638 33.9682 6.82084 33.9682 6.70036C33.9682 6.57988 34.0115 6.46434 34.0885 6.37915C34.1656 6.29396 34.2702 6.2461 34.3792 6.2461L39.5741 6.24609C39.6831 6.24609 39.7876 6.29395 39.8647 6.37914C39.9418 6.46433 39.9851 6.57988 39.9851 6.70035C39.9851 6.82083 39.9418 6.93637 39.8647 7.02156C39.7876 7.10675 39.6831 7.15461 39.5741 7.15461Z" fill="#E6E6E6"/>
<path d="M41.2694 8.68782L34.3792 8.68783C34.3251 8.6879 34.2716 8.6762 34.2217 8.65341C34.1718 8.63061 34.1264 8.59716 34.0882 8.55497C34.05 8.51278 34.0197 8.46268 33.999 8.40753C33.9783 8.35238 33.9677 8.29327 33.9677 8.23356C33.9677 8.17386 33.9783 8.11475 33.999 8.0596C34.0197 8.00445 34.05 7.95434 34.0882 7.91215C34.1264 7.86996 34.1718 7.83652 34.2217 7.81372C34.2716 7.79092 34.3251 7.77923 34.3792 7.7793L41.2694 7.7793C41.3784 7.7793 41.4829 7.82716 41.56 7.91235C41.6371 7.99754 41.6804 8.11308 41.6804 8.23356C41.6804 8.35404 41.6371 8.46958 41.56 8.55477C41.4829 8.63996 41.3784 8.68782 41.2694 8.68782Z" fill="#E6E6E6"/>
<path d="M39.5666 14.5682L26.628 14.5682C26.5191 14.5681 26.4147 14.5201 26.3377 14.435C26.2608 14.3498 26.2175 14.2343 26.2175 14.1139C26.2175 13.9936 26.2608 13.8781 26.3377 13.7929C26.4147 13.7078 26.5191 13.6598 26.628 13.6597L39.5666 13.6597C39.6756 13.6597 39.7801 13.7075 39.8572 13.7927C39.9342 13.8779 39.9775 13.9935 39.9775 14.1139C39.9775 14.2344 39.9342 14.35 39.8572 14.4351C39.7801 14.5203 39.6756 14.5682 39.5666 14.5682Z" fill="#E6E6E6"/>
<path d="M41.2618 16.1009L26.628 16.1009C26.574 16.101 26.5205 16.0893 26.4706 16.0665C26.4207 16.0437 26.3753 16.0103 26.3371 15.9681C26.2989 15.9259 26.2685 15.8758 26.2479 15.8206C26.2272 15.7655 26.2165 15.7064 26.2165 15.6467C26.2165 15.587 26.2272 15.5278 26.2479 15.4727C26.2685 15.4175 26.2989 15.3674 26.3371 15.3252C26.3753 15.2831 26.4207 15.2496 26.4706 15.2268C26.5205 15.204 26.574 15.1923 26.628 15.1924L41.2618 15.1924C41.3708 15.1924 41.4754 15.2402 41.5525 15.3254C41.6295 15.4106 41.6728 15.5262 41.6728 15.6466C41.6728 15.7671 41.6295 15.8827 41.5525 15.9679C41.4754 16.053 41.3708 16.1009 41.2618 16.1009Z" fill="#E6E6E6"/>
<path d="M39.5666 19.6248L26.628 19.6248C26.5191 19.6247 26.4147 19.5768 26.3377 19.4916C26.2608 19.4064 26.2175 19.291 26.2175 19.1706C26.2175 19.0502 26.2608 18.9347 26.3377 18.8496C26.4147 18.7644 26.5191 18.7165 26.628 18.7163L39.5666 18.7163C39.6756 18.7163 39.7801 18.7642 39.8572 18.8494C39.9342 18.9345 39.9775 19.0501 39.9775 19.1706C39.9775 19.291 39.9342 19.4066 39.8572 19.4918C39.7801 19.577 39.6756 19.6248 39.5666 19.6248Z" fill="#E6E6E6"/>
<path d="M41.2618 21.158L26.628 21.158C26.574 21.1581 26.5205 21.1464 26.4706 21.1236C26.4207 21.1008 26.3753 21.0674 26.3371 21.0252C26.2989 20.983 26.2685 20.9329 26.2479 20.8778C26.2272 20.8226 26.2165 20.7635 26.2165 20.7038C26.2165 20.6441 26.2272 20.585 26.2479 20.5298C26.2685 20.4747 26.2989 20.4246 26.3371 20.3824C26.3753 20.3402 26.4207 20.3067 26.4706 20.2839C26.5205 20.2611 26.574 20.2495 26.628 20.2495L41.2618 20.2495C41.3708 20.2495 41.4754 20.2974 41.5525 20.3826C41.6295 20.4678 41.6728 20.5833 41.6728 20.7038C41.6728 20.8242 41.6295 20.9398 41.5525 21.025C41.4754 21.1102 41.3708 21.158 41.2618 21.158Z" fill="#E6E6E6"/>
<path d="M39.5666 24.682L26.628 24.682C26.519 24.682 26.4145 24.6341 26.3374 24.5489C26.2603 24.4637 26.217 24.3482 26.217 24.2277C26.217 24.1072 26.2603 23.9917 26.3374 23.9065C26.4145 23.8213 26.519 23.7735 26.628 23.7735L39.5666 23.7734C39.6756 23.7734 39.7801 23.8213 39.8572 23.9065C39.9342 23.9917 39.9775 24.1072 39.9775 24.2277C39.9775 24.3482 39.9342 24.4637 39.8572 24.5489C39.7801 24.6341 39.6756 24.682 39.5666 24.682Z" fill="#E6E6E6"/>
<path d="M41.2619 26.2147L26.628 26.2147C26.519 26.2147 26.4145 26.1668 26.3374 26.0816C26.2603 25.9964 26.217 25.8809 26.217 25.7604C26.217 25.64 26.2603 25.5244 26.3374 25.4392C26.4145 25.354 26.519 25.3062 26.628 25.3062L41.2619 25.3062C41.3708 25.3062 41.4754 25.354 41.5525 25.4392C41.6295 25.5244 41.6728 25.6399 41.6728 25.7604C41.6728 25.8809 41.6295 25.9964 41.5525 26.0816C41.4754 26.1668 41.3708 26.2147 41.2619 26.2147Z" fill="#E6E6E6"/>
<path d="M32.0513 41.3216H13.6923C13.4612 41.3213 13.2396 41.2197 13.0761 41.0391C12.9127 40.8584 12.8208 40.6135 12.8205 40.358V12.8103C12.8208 12.5548 12.9127 12.3099 13.0761 12.1292C13.2396 11.9486 13.4612 11.847 13.6923 11.8467H32.0513C32.2824 11.847 32.504 11.9486 32.6674 12.1292C32.8309 12.3099 32.9228 12.5548 32.9231 12.8103V40.358C32.9228 40.6135 32.8309 40.8584 32.6674 41.0391C32.504 41.2197 32.2824 41.3213 32.0513 41.3216Z" fill="white"/>
<path d="M15.2235 18.9384C15.2229 19.4344 15.3112 19.9257 15.4832 20.3839C15.6553 20.842 15.9077 21.258 16.226 21.6078C16.2526 21.6369 16.2799 21.666 16.3075 21.6945C16.4737 21.8661 16.655 22.0189 16.8487 22.1505C16.8859 22.1759 16.9231 22.2002 16.9613 22.2239C17.1572 22.3459 17.3636 22.4461 17.5775 22.523C17.6144 22.5363 17.6519 22.549 17.6894 22.5607C18.3693 22.7762 19.0929 22.7537 19.7608 22.4962C19.7738 22.4911 19.7868 22.486 19.7995 22.4808C20.3858 22.2451 20.9023 21.8361 21.2928 21.2984C21.6834 20.7606 21.933 20.1148 22.0145 19.4312C22.096 18.7475 22.0063 18.0523 21.7551 17.4211C21.5039 16.7899 21.1009 16.2469 20.5899 15.8513C20.0789 15.4558 19.4795 15.2227 18.857 15.1775C18.2345 15.1324 17.6127 15.2768 17.0593 15.5951C16.5059 15.9135 16.0421 16.3935 15.7184 16.983C15.3947 17.5725 15.2235 18.2488 15.2235 18.9384Z" fill="white"/>
<path d="M17.9132 20.786C17.9149 21.078 17.8175 21.3601 17.6403 21.5767C17.465 21.7894 17.204 21.9304 16.9406 21.872C16.698 21.8183 16.501 21.584 16.5255 21.3006C16.5296 21.2392 16.5458 21.1795 16.5729 21.1257C16.5999 21.0719 16.6373 21.0253 16.6824 20.9891C16.7274 20.9529 16.7791 20.928 16.8337 20.9161C16.8884 20.9043 16.9447 20.9057 16.9988 20.9204C17.2292 20.9865 17.321 21.3535 17.129 21.5258C17.0829 21.5671 17.0167 21.4948 17.0632 21.4531C17.0919 21.4241 17.1136 21.3877 17.1262 21.347C17.1388 21.3064 17.142 21.263 17.1355 21.2206C17.129 21.1783 17.1129 21.1384 17.0889 21.1047C17.0648 21.071 17.0335 21.0445 16.9978 21.0276C16.9556 21.0127 16.9109 21.0086 16.8671 21.0155C16.8233 21.0225 16.7815 21.0404 16.7449 21.0679C16.7082 21.0954 16.6777 21.1317 16.6557 21.1742C16.6336 21.2166 16.6206 21.264 16.6176 21.3129C16.6024 21.5518 16.768 21.7318 16.9711 21.7741C17.1908 21.82 17.4087 21.6957 17.5576 21.5241C17.7282 21.3249 17.8223 21.0603 17.8202 20.786C17.8206 20.7727 17.8257 20.7601 17.8344 20.7508C17.8431 20.7415 17.8547 20.7363 17.8667 20.7363C17.8788 20.7363 17.8904 20.7415 17.8991 20.7508C17.9078 20.7601 17.9128 20.7727 17.9132 20.786Z" fill="#181819"/>
<path d="M18.8213 21.4394C19.7376 21.4394 20.4803 20.6184 20.4803 19.6057C20.4803 18.593 19.7376 17.772 18.8213 17.772C17.9051 17.772 17.1623 18.593 17.1623 19.6057C17.1623 20.6184 17.9051 21.4394 18.8213 21.4394Z" fill="#005DB9"/>
<path d="M18.7364 20.3882L18.7347 20.3197C18.85 20.3162 18.9517 20.3082 19.0281 20.2465C19.0498 20.228 19.0676 20.2045 19.0803 20.1778C19.0931 20.151 19.1004 20.1215 19.1019 20.0913C19.1033 20.0729 19.1008 20.0543 19.0946 20.0371C19.0884 20.0199 19.0787 20.0045 19.0662 19.9921C19.0373 19.9728 19.0043 19.9624 18.9705 19.9621C18.9368 19.9617 18.9036 19.9715 18.8744 19.9903L18.8231 20.0163L18.9215 19.2217L18.9829 19.231L18.8992 19.9069C18.9335 19.8928 18.9704 19.8885 19.0065 19.8942C19.0427 19.9 19.077 19.9156 19.1062 19.9398C19.1259 19.9588 19.1414 19.9826 19.1514 20.0093C19.1614 20.036 19.1657 20.0649 19.1639 20.0937C19.1621 20.1343 19.1523 20.1739 19.1351 20.2099C19.118 20.2458 19.094 20.2772 19.0647 20.3018C18.9665 20.3811 18.8389 20.385 18.7364 20.3882Z" fill="#181819"/>
<path d="M19.6206 19.2891H19.2867V19.3576H19.6206V19.2891Z" fill="#181819"/>
<path d="M18.5666 19.2891H18.2327V19.3576H18.5666V19.2891Z" fill="#181819"/>
<path d="M17.6894 22.561C18.3693 22.7765 19.0929 22.754 19.7608 22.4966C19.7738 22.4915 19.7868 22.4863 19.7995 22.4812C19.6421 22.347 19.4641 22.2453 19.2741 22.1811C19.2875 22.1284 19.2873 22.0726 19.2734 22.02C19.2546 21.9534 19.2169 21.8953 19.1658 21.8543C19.1147 21.8133 19.053 21.7916 18.9898 21.7925H18.5856C18.5226 21.7916 18.4609 21.8132 18.4099 21.8541C18.3589 21.8951 18.3213 21.9531 18.3026 22.0197C18.2887 22.0723 18.2885 22.1283 18.302 22.1811C18.1345 22.2377 17.9763 22.3234 17.8333 22.4349C17.8044 22.4572 17.7765 22.4805 17.7496 22.5048C17.7291 22.523 17.709 22.5418 17.6894 22.561Z" fill="#181819"/>
<path d="M20.121 19.4112C20.121 19.7202 20.2586 19.9765 20.4375 20.021C20.4557 20.0256 20.4743 20.0279 20.4929 20.0279C20.6978 20.0279 20.8649 19.7514 20.8649 19.4112C20.8695 19.2358 20.8189 19.064 20.7217 18.9253C20.6915 18.8849 20.6543 18.8514 20.6123 18.827C20.5754 18.8057 20.5345 18.7946 20.4929 18.7944C20.4358 18.7952 20.3804 18.8158 20.3345 18.8534C20.2084 18.952 20.121 19.1648 20.121 19.4112Z" fill="#3F3D56"/>
<path d="M16.8041 19.4112C16.8041 19.677 16.9058 19.9039 17.0484 19.9906C17.0874 20.0147 17.1314 20.0276 17.1761 20.0279C17.186 20.0279 17.196 20.0272 17.2059 20.0258C17.3968 20.0008 17.5481 19.735 17.5481 19.4112C17.5481 19.1518 17.451 18.9294 17.314 18.8386C17.2726 18.8102 17.2249 18.7949 17.1761 18.7944C17.1345 18.7946 17.0936 18.8057 17.0567 18.827C17.0146 18.8516 16.9773 18.8851 16.947 18.9257C16.8501 19.0644 16.7996 19.2359 16.8041 19.4112Z" fill="#3F3D56"/>
<path d="M17.0716 19.9314C17.079 19.9314 17.0862 19.9294 17.0928 19.9257C17.0994 19.922 17.105 19.9166 17.1093 19.9099C17.1136 19.9033 17.1165 19.8956 17.1176 19.8876C17.1186 19.8795 17.118 19.8713 17.1156 19.8635C17.0268 19.5714 17 19.2606 17.0375 18.9552C17.075 18.6499 17.1757 18.3582 17.3317 18.1028C17.4878 17.8474 17.695 17.6352 17.9373 17.4828C18.1796 17.3303 18.4505 17.2417 18.7288 17.2237C19.0071 17.2058 19.2855 17.259 19.5422 17.3793C19.7989 17.4996 20.027 17.6837 20.2089 17.9172C20.3908 18.1508 20.5215 18.4276 20.5908 18.7261C20.6602 19.0246 20.6663 19.3367 20.6088 19.6383C20.6063 19.6516 20.6086 19.6655 20.6154 19.6769C20.6221 19.6883 20.6327 19.6962 20.6447 19.6991C20.6568 19.7019 20.6693 19.6993 20.6797 19.6919C20.69 19.6844 20.6972 19.6728 20.6998 19.6595C20.7603 19.3424 20.7539 19.0142 20.681 18.7004C20.6081 18.3866 20.4707 18.0955 20.2795 17.8499C20.0883 17.6043 19.8484 17.4108 19.5785 17.2843C19.3086 17.1579 19.016 17.1019 18.7233 17.1208C18.4307 17.1396 18.1459 17.2329 17.8912 17.3932C17.6364 17.5535 17.4186 17.7766 17.2545 18.0451C17.0904 18.3136 16.9846 18.6203 16.9452 18.9414C16.9059 19.2625 16.934 19.5893 17.0275 19.8964C17.0306 19.9066 17.0366 19.9154 17.0445 19.9217C17.0524 19.928 17.0618 19.9314 17.0716 19.9314Z" fill="#3F3D56"/>
<path d="M19.6547 18.4177C19.6822 18.4674 19.6937 18.5259 19.6871 18.5837C19.6806 18.6415 19.6565 18.6952 19.6188 18.7359C19.5287 18.8471 19.3851 18.8541 19.2604 18.8334C19.1205 18.8103 18.972 18.7378 18.8304 18.7866C18.7096 18.8283 18.6235 18.9493 18.498 18.9797C18.3868 19.0067 18.2537 18.971 18.2147 18.8399C18.196 18.7769 18.2858 18.75 18.3044 18.8126C18.3296 18.8974 18.4386 18.8957 18.501 18.8722C18.601 18.8346 18.6781 18.743 18.7764 18.6993C18.8936 18.6592 19.0191 18.6596 19.1361 18.7004C19.2473 18.7281 19.3753 18.7691 19.4862 18.7174C19.5681 18.6791 19.6334 18.5586 19.5744 18.4696C19.539 18.4162 19.6197 18.3648 19.6547 18.4177Z" fill="#181819"/>
<path d="M18.6333 22.8105C18.3053 22.8108 17.9789 22.76 17.6636 22.6598C17.6266 22.6483 17.5877 22.6352 17.5486 22.621C17.3289 22.542 17.1169 22.4391 16.9157 22.3138C16.8779 22.2904 16.84 22.2657 16.7999 22.2384C16.601 22.1031 16.4147 21.9462 16.244 21.77C16.2158 21.7409 16.1879 21.7111 16.1606 21.6813C15.6237 21.0896 15.275 20.3213 15.1669 19.4919C15.0588 18.6624 15.1971 17.8165 15.561 17.0814C15.925 16.3462 16.4949 15.7614 17.1852 15.4149C17.8756 15.0683 18.649 14.9787 19.3893 15.1595C20.1296 15.3404 20.7969 15.7818 21.2909 16.4176C21.7848 17.0534 22.0788 17.8491 22.1286 18.6854C22.1784 19.5216 21.9814 20.3531 21.5672 21.055C21.1529 21.7569 20.5438 22.2912 19.8313 22.5778C19.8185 22.583 19.8053 22.5882 19.792 22.5934C19.4196 22.7375 19.0279 22.8109 18.6333 22.8105ZM18.6333 15.2726C17.9769 15.2726 17.3352 15.488 16.7895 15.8913C16.2438 16.2947 15.8187 16.868 15.568 17.5386C15.3172 18.2092 15.2522 18.9469 15.381 19.6584C15.5098 20.3699 15.8267 21.0231 16.2916 21.5354C16.3174 21.5635 16.344 21.5919 16.3709 21.6197C16.5326 21.7866 16.709 21.9352 16.8975 22.0634C16.9354 22.0892 16.9711 22.1125 17.0068 22.1346C17.1974 22.2533 17.3982 22.3507 17.6062 22.4256C17.6431 22.4389 17.6794 22.4512 17.7146 22.4621C18.3761 22.6719 19.0802 22.6501 19.73 22.3996L19.7676 22.3847C20.5004 22.0898 21.1158 21.519 21.5057 20.7725C21.8957 20.026 22.0352 19.1516 21.8998 18.3027C21.7644 17.4538 21.3628 16.6848 20.7654 16.1306C20.1681 15.5765 19.4132 15.2727 18.6333 15.2726Z" fill="#CCCCCC"/>
<path d="M32.0513 41.3216H13.6923C13.4612 41.3213 13.2396 41.2197 13.0761 41.0391C12.9127 40.8584 12.8208 40.6135 12.8205 40.358V12.8103C12.8208 12.5548 12.9127 12.3099 13.0761 12.1292C13.2396 11.9486 13.4612 11.847 13.6923 11.8467H32.0513C32.2824 11.847 32.504 11.9486 32.6674 12.1292C32.8309 12.3099 32.9228 12.5548 32.9231 12.8103V40.358C32.9228 40.6135 32.8309 40.8584 32.6674 41.0391C32.504 41.2197 32.2824 41.3213 32.0513 41.3216ZM13.6923 11.96C13.4884 11.9603 13.2928 12.05 13.1486 12.2094C13.0044 12.3688 12.9233 12.5849 12.9231 12.8103V40.358C12.9233 40.5834 13.0044 40.7995 13.1486 40.9589C13.2928 41.1183 13.4884 41.208 13.6923 41.2082H32.0513C32.2552 41.208 32.4507 41.1183 32.5949 40.9589C32.7392 40.7995 32.8203 40.5834 32.8205 40.358V12.8103C32.8203 12.5849 32.7392 12.3688 32.5949 12.2094C32.4507 12.05 32.2552 11.9603 32.0513 11.96H13.6923Z" fill="#3F3D56"/>
<path d="M28.4972 19.0013H23.3022C23.1932 19.0013 23.0887 18.9534 23.0116 18.8682C22.9346 18.7831 22.8913 18.6675 22.8913 18.547C22.8913 18.4266 22.9346 18.311 23.0116 18.2258C23.0887 18.1406 23.1932 18.0928 23.3022 18.0928H28.4972C28.6062 18.0928 28.7107 18.1406 28.7878 18.2258C28.8649 18.311 28.9082 18.4266 28.9082 18.547C28.9082 18.6675 28.8649 18.7831 28.7878 18.8682C28.7107 18.9534 28.6062 19.0013 28.4972 19.0013Z" fill="#005DB9"/>
<path d="M30.1925 20.5345H23.3022C23.1932 20.5345 23.0887 20.4866 23.0116 20.4014C22.9346 20.3163 22.8913 20.2007 22.8913 20.0802C22.8913 19.9598 22.9346 19.8442 23.0116 19.759C23.0887 19.6738 23.1932 19.626 23.3022 19.626H30.1925C30.3015 19.626 30.406 19.6738 30.4831 19.759C30.5602 19.8442 30.6035 19.9598 30.6035 20.0802C30.6035 20.2007 30.5602 20.3163 30.4831 20.4014C30.406 20.4866 30.3015 20.5345 30.1925 20.5345Z" fill="#005DB9"/>
<path d="M28.4896 26.4149H15.5511C15.4421 26.4149 15.3376 26.367 15.2605 26.2818C15.1834 26.1966 15.1401 26.0811 15.1401 25.9606C15.1401 25.8401 15.1834 25.7246 15.2605 25.6394C15.3376 25.5542 15.4421 25.5063 15.5511 25.5063H28.4896C28.5986 25.5063 28.7032 25.5542 28.7802 25.6394C28.8573 25.7246 28.9006 25.8401 28.9006 25.9606C28.9006 26.0811 28.8573 26.1966 28.7802 26.2818C28.7032 26.367 28.5986 26.4149 28.4896 26.4149Z" fill="#CCCCCC"/>
<path d="M30.1849 27.9476H15.5511C15.4421 27.9476 15.3376 27.8997 15.2605 27.8145C15.1834 27.7293 15.1401 27.6138 15.1401 27.4933C15.1401 27.3728 15.1834 27.2573 15.2605 27.1721C15.3376 27.0869 15.4421 27.0391 15.5511 27.0391H30.1849C30.2939 27.0391 30.3985 27.0869 30.4755 27.1721C30.5526 27.2573 30.5959 27.3728 30.5959 27.4933C30.5959 27.6138 30.5526 27.7293 30.4755 27.8145C30.3985 27.8997 30.2939 27.9476 30.1849 27.9476Z" fill="#CCCCCC"/>
<path d="M28.4896 31.4715H15.5511C15.4422 31.4714 15.3378 31.4234 15.2608 31.3383C15.1838 31.2531 15.1406 31.1376 15.1406 31.0172C15.1406 30.8969 15.1838 30.7814 15.2608 30.6962C15.3378 30.6111 15.4422 30.5631 15.5511 30.563H28.4896C28.5986 30.563 28.7032 30.6108 28.7802 30.696C28.8573 30.7812 28.9006 30.8968 28.9006 31.0172C28.9006 31.1377 28.8573 31.2533 28.7802 31.3385C28.7032 31.4237 28.5986 31.4715 28.4896 31.4715Z" fill="#CCCCCC"/>
<path d="M30.1849 33.0047H15.5511C15.4422 33.0046 15.3378 32.9566 15.2608 32.8715C15.1838 32.7863 15.1406 32.6708 15.1406 32.5505C15.1406 32.4301 15.1838 32.3146 15.2608 32.2294C15.3378 32.1443 15.4422 32.0963 15.5511 32.0962H30.1849C30.2939 32.0962 30.3985 32.1441 30.4755 32.2292C30.5526 32.3144 30.5959 32.43 30.5959 32.5505C30.5959 32.6709 30.5526 32.7865 30.4755 32.8717C30.3985 32.9569 30.2939 33.0047 30.1849 33.0047Z" fill="#CCCCCC"/>
<path d="M28.4896 36.5281H15.5511C15.4421 36.5281 15.3376 36.4803 15.2605 36.3951C15.1834 36.3099 15.1401 36.1944 15.1401 36.0739C15.1401 35.9534 15.1834 35.8379 15.2605 35.7527C15.3376 35.6675 15.4421 35.6196 15.5511 35.6196H28.4896C28.5986 35.6196 28.7032 35.6675 28.7802 35.7527C28.8573 35.8379 28.9006 35.9534 28.9006 36.0739C28.9006 36.1944 28.8573 36.3099 28.7802 36.3951C28.7032 36.4803 28.5986 36.5281 28.4896 36.5281Z" fill="#CCCCCC"/>
<path d="M30.1849 38.0614H15.5511C15.4421 38.0614 15.3376 38.0135 15.2605 37.9283C15.1834 37.8431 15.1401 37.7276 15.1401 37.6071C15.1401 37.4866 15.1834 37.3711 15.2605 37.2859C15.3376 37.2007 15.4421 37.1528 15.5511 37.1528H30.1849C30.2939 37.1528 30.3985 37.2007 30.4755 37.2859C30.5526 37.3711 30.5959 37.4866 30.5959 37.6071C30.5959 37.7276 30.5526 37.8431 30.4755 37.9283C30.3985 38.0135 30.2939 38.0614 30.1849 38.0614Z" fill="#CCCCCC"/>
<path d="M30.5 43.1667C26.5467 43.1667 23.3333 39.9533 23.3333 36C23.3333 34.7467 23.66 33.5133 24.2867 32.4267C24.4267 32.1867 24.7267 32.1067 24.9667 32.24L30.7467 35.56C30.9867 35.7 31.0667 36 30.9333 36.24C30.7933 36.48 30.4933 36.56 30.2533 36.4267L24.92 33.3667C24.5333 34.1867 24.3333 35.08 24.3333 35.9933C24.3333 39.3933 27.1 42.16 30.5 42.16C33.9 42.16 36.6667 39.3933 36.6667 35.9933C36.6667 32.5933 33.9 29.8267 30.5 29.8267C29.1533 29.8267 27.8733 30.2533 26.8 31.06C26.58 31.2267 26.2667 31.18 26.1 30.96C25.9333 30.74 25.98 30.4267 26.2 30.26C27.4467 29.3267 28.9333 28.8267 30.5 28.8267C34.4533 28.8267 37.6667 32.04 37.6667 35.9933C37.6667 39.9467 34.4533 43.1667 30.5 43.1667Z" fill="#004E9A"/>
</g>
<defs>
<clipPath id="clip0_384_2236">
<rect width="44" height="44" fill="white"/>
</clipPath>
</defs>
</svg>
