<svg width="44" height="44" viewBox="0 0 44 44" fill="none" xmlns="http://www.w3.org/2000/svg">
<g clip-path="url(#clip0_384_2305)">
<path d="M22.534 0.0963081L21.1024 0.507677L3.46373 5.57584L2.03205 5.98721C1.33713 6.18782 0.741999 6.68737 0.377228 7.37627C0.0124578 8.06517 -0.092165 8.88715 0.0863129 9.66189L6.29441 36.485C6.47445 37.2593 6.92279 37.9224 7.54107 38.3288C8.15935 38.7353 8.89708 38.8518 9.59241 38.653L9.5961 38.6519L30.0907 32.7631L30.0944 32.7621C30.7893 32.5615 31.3844 32.0619 31.7492 31.373C32.114 30.6841 32.2186 29.8621 32.0401 29.0874L25.832 2.26429C25.652 1.49 25.2037 0.826892 24.5854 0.420457C23.9671 0.0140217 23.2294 -0.102553 22.534 0.0963081Z" fill="#F2F2F2"/>
<path d="M22.7285 0.936675L21.0328 1.42392L3.92218 6.34036L2.22647 6.82759C1.7316 6.97044 1.30779 7.32618 1.04803 7.81676C0.788267 8.30734 0.713762 8.8927 0.840861 9.44441L7.04895 36.2675C7.17716 36.8189 7.49644 37.2911 7.93673 37.5806C8.37703 37.87 8.90238 37.953 9.39754 37.8114L9.40123 37.8103L29.8958 31.9215L29.8995 31.9205C30.3944 31.7776 30.8182 31.4219 31.078 30.9313C31.3377 30.4407 31.4122 29.8554 31.2851 29.3037L25.077 2.48055C24.9488 1.92916 24.6296 1.45695 24.1893 1.16752C23.749 0.878087 23.2236 0.795068 22.7285 0.936675Z" fill="white"/>
<path d="M21.4481 9.62304L11.0803 12.602C10.9646 12.6353 10.8416 12.616 10.7386 12.5483C10.6356 12.4805 10.561 12.37 10.5311 12.241C10.5013 12.112 10.5186 11.975 10.5794 11.8603C10.6402 11.7455 10.7394 11.6623 10.8552 11.6291L21.2229 8.65008C21.3386 8.61694 21.4615 8.63637 21.5644 8.70409C21.6673 8.7718 21.7418 8.88227 21.7717 9.01122C21.8015 9.14017 21.7842 9.27704 21.7235 9.39177C21.6628 9.50649 21.5638 9.58967 21.4481 9.62304Z" fill="#F2F2F2"/>
<path d="M23.6291 10.7472L11.4603 14.2437C11.3446 14.2769 11.2216 14.2576 11.1186 14.1899C11.0156 14.1222 10.941 14.0117 10.9111 13.8826C10.8813 13.7536 10.8986 13.6167 10.9594 13.5019C11.0202 13.3871 11.1194 13.304 11.2352 13.2707L23.4039 9.77422C23.5197 9.74095 23.6426 9.76029 23.7456 9.828C23.8486 9.8957 23.9232 10.0062 23.9531 10.1352C23.983 10.2643 23.9656 10.4012 23.9048 10.516C23.8441 10.6307 23.7449 10.7139 23.6291 10.7472Z" fill="#F2F2F2"/>
<path d="M23.151 16.9811L12.7833 19.9601C12.726 19.9765 12.6663 19.9803 12.6077 19.971C12.549 19.9618 12.4926 19.9398 12.4416 19.9063C12.3906 19.8728 12.346 19.8284 12.3104 19.7756C12.2748 19.7229 12.2489 19.6629 12.2341 19.599C12.2193 19.5351 12.216 19.4686 12.2243 19.4033C12.2325 19.338 12.2523 19.2751 12.2824 19.2183C12.3125 19.1615 12.3523 19.1118 12.3996 19.0721C12.4469 19.0325 12.5008 19.0036 12.5581 18.9871L22.9258 16.0081C22.9832 15.9916 23.0429 15.9879 23.1015 15.9971C23.1601 16.0064 23.2166 16.0284 23.2676 16.0619C23.3186 16.0954 23.3631 16.1398 23.3987 16.1925C23.4343 16.2452 23.4603 16.3052 23.4751 16.3691C23.4898 16.433 23.4932 16.4995 23.4849 16.5648C23.4766 16.6302 23.4569 16.693 23.4268 16.7499C23.3967 16.8067 23.3569 16.8564 23.3096 16.896C23.2622 16.9357 23.2084 16.9646 23.151 16.9811Z" fill="#F2F2F2"/>
<path d="M25.3321 18.1051L13.1633 21.6016C13.106 21.618 13.0463 21.6218 12.9877 21.6126C12.929 21.6033 12.8726 21.5813 12.8216 21.5478C12.7706 21.5143 12.726 21.4699 12.6904 21.4172C12.6548 21.3644 12.6289 21.3044 12.6141 21.2405C12.5993 21.1767 12.596 21.1102 12.6043 21.0448C12.6126 20.9795 12.6323 20.9166 12.6624 20.8598C12.6925 20.803 12.7323 20.7533 12.7796 20.7137C12.8269 20.674 12.8808 20.6451 12.9381 20.6286L25.1069 17.1321C25.2227 17.0989 25.3456 17.1182 25.4486 17.1859C25.5516 17.2536 25.6262 17.3641 25.6561 17.4932C25.6859 17.6222 25.6686 17.7591 25.6078 17.8739C25.5471 17.9887 25.4479 18.0718 25.3321 18.1051Z" fill="#F2F2F2"/>
<path d="M24.854 24.339L14.4863 27.318C14.3705 27.3511 14.2477 27.3317 14.1448 27.264C14.0418 27.1963 13.9672 27.0858 13.9374 26.9569C13.9076 26.8279 13.9249 26.691 13.9856 26.5763C14.0463 26.4615 14.1454 26.3784 14.2611 26.345L24.6288 23.366C24.7446 23.3327 24.8675 23.3521 24.9705 23.4198C25.0735 23.4875 25.1482 23.598 25.178 23.727C25.2079 23.8561 25.1905 23.993 25.1298 24.1078C25.069 24.2225 24.9698 24.3057 24.854 24.339Z" fill="#F2F2F2"/>
<path d="M27.035 25.4635L14.8663 28.96C14.8089 28.9765 14.7492 28.9803 14.6906 28.9711C14.6319 28.9619 14.5754 28.9399 14.5244 28.9064C14.4733 28.8729 14.4287 28.8285 14.3931 28.7758C14.3575 28.723 14.3315 28.663 14.3167 28.5991C14.3019 28.5351 14.2986 28.4686 14.3069 28.4032C14.3152 28.3379 14.3349 28.275 14.3651 28.2181C14.3952 28.1613 14.4351 28.1116 14.4825 28.072C14.5298 28.0323 14.5837 28.0034 14.6411 27.987L26.8099 24.4905C26.9257 24.4573 27.0486 24.4766 27.1516 24.5443C27.2546 24.612 27.3292 24.7225 27.3591 24.8516C27.3889 24.9806 27.3716 25.1175 27.3108 25.2323C27.25 25.347 27.1508 25.4302 27.035 25.4635Z" fill="#F2F2F2"/>
<path d="M9.31042 15.6565L5.64139 16.7108C5.58587 16.7267 5.52696 16.7173 5.47759 16.6849C5.42822 16.6524 5.39242 16.5995 5.37805 16.5377L4.53582 12.8987C4.52157 12.8368 4.52992 12.7712 4.55905 12.7162C4.58818 12.6612 4.6357 12.6213 4.69119 12.6053L8.36022 11.551C8.41575 11.5352 8.47465 11.5445 8.52402 11.5769C8.57339 11.6094 8.60919 11.6623 8.62357 11.7241L9.46579 15.3631C9.48005 15.425 9.47169 15.4906 9.44257 15.5456C9.41344 15.6006 9.36591 15.6405 9.31042 15.6565Z" fill="#E6E6E6"/>
<path d="M11.0134 23.0144L7.34437 24.0687C7.28885 24.0846 7.22994 24.0753 7.18057 24.0428C7.1312 24.0103 7.0954 23.9574 7.08102 23.8956L6.2388 20.2566C6.22455 20.1947 6.2329 20.1291 6.26203 20.0741C6.29115 20.0191 6.33868 19.9792 6.39417 19.9632L10.0632 18.9089C10.1187 18.8931 10.1776 18.9024 10.227 18.9348C10.2764 18.9673 10.3122 19.0202 10.3265 19.0821L11.1688 22.721C11.183 22.7829 11.1747 22.8485 11.1455 22.9035C11.1164 22.9585 11.0689 22.9984 11.0134 23.0144Z" fill="#E6E6E6"/>
<path d="M12.7164 30.3724L9.04735 31.4266C8.99182 31.4425 8.93292 31.4332 8.88355 31.4007C8.83418 31.3683 8.79838 31.3153 8.784 31.2535L7.94178 27.6145C7.92752 27.5526 7.93588 27.487 7.965 27.432C7.99413 27.377 8.04165 27.3371 8.09714 27.3211L11.7662 26.2669C11.8217 26.251 11.8806 26.2603 11.93 26.2927C11.9793 26.3252 12.0151 26.3781 12.0295 26.44L12.8717 30.0789C12.886 30.1408 12.8776 30.2064 12.8485 30.2614C12.8194 30.3165 12.7719 30.3563 12.7164 30.3724Z" fill="#E6E6E6"/>
<path d="M36.8329 6.89502H15.6602C14.9423 6.89592 14.2541 7.21406 13.7465 7.77965C13.2389 8.34523 12.9534 9.11207 12.9526 9.91192V37.6126C12.9534 38.4124 13.2389 39.1793 13.7465 39.7449C14.2541 40.3104 14.9423 40.6286 15.6602 40.6295H36.8329C37.5508 40.6286 38.239 40.3104 38.7466 39.7449C39.2542 39.1793 39.5398 38.4124 39.5406 37.6126V9.91192C39.5398 9.11207 39.2542 8.34523 38.7466 7.77965C38.239 7.21406 37.5508 6.89592 36.8329 6.89502Z" fill="#E6E6E6"/>
<path d="M36.833 7.76367H15.6602C15.149 7.76431 14.6589 7.99086 14.2974 8.39363C13.9359 8.7964 13.7326 9.34248 13.732 9.91208V37.6127C13.7326 38.1823 13.9359 38.7284 14.2974 39.1312C14.6589 39.5339 15.149 39.7605 15.6602 39.7611H36.833C37.3442 39.7605 37.8343 39.5339 38.1957 39.1312C38.5572 38.7284 38.7605 38.1823 38.7611 37.6127V9.91208C38.7605 9.34248 38.5572 8.7964 38.1957 8.39364C37.8343 7.99087 37.3442 7.76432 36.833 7.76367Z" fill="white"/>
<path d="M35.5 45C40.4706 45 44.5 40.9706 44.5 36C44.5 31.0294 40.4706 27 35.5 27C30.5294 27 26.5 31.0294 26.5 36C26.5 40.9706 30.5294 45 35.5 45Z" fill="#001F3E"/>
<path d="M37.8725 35.6339H36.1533V33.7183C36.1533 33.5278 36.0854 33.3451 35.9645 33.2104C35.8436 33.0757 35.6796 33 35.5086 33C35.3376 33 35.1736 33.0757 35.0527 33.2104C34.9318 33.3451 34.8639 33.5278 34.8639 33.7183V35.6339H33.1447C32.9737 35.6339 32.8097 35.7096 32.6888 35.8443C32.5679 35.979 32.5 36.1617 32.5 36.3522C32.5 36.5427 32.5679 36.7255 32.6888 36.8602C32.8097 36.9949 32.9737 37.0706 33.1447 37.0706H34.8639V38.9861C34.8639 39.1766 34.9318 39.3593 35.0527 39.4941C35.1736 39.6288 35.3376 39.7045 35.5086 39.7045C35.6796 39.7045 35.8436 39.6288 35.9645 39.4941C36.0854 39.3593 36.1533 39.1766 36.1533 38.9861V37.0706H37.8725C38.0435 37.0706 38.2075 36.9949 38.3284 36.8602C38.4493 36.7255 38.5172 36.5427 38.5172 36.3522C38.5172 36.1617 38.4493 35.979 38.3284 35.8443C38.2075 35.7096 38.0435 35.6339 37.8725 35.6339Z" fill="white"/>
<path d="M33.6464 22.9853H22.9395C22.8803 22.9853 22.8216 22.9724 22.7668 22.9472C22.7121 22.922 22.6623 22.885 22.6204 22.8383C22.5784 22.7917 22.5452 22.7362 22.5225 22.6753C22.4998 22.6143 22.4881 22.5489 22.4881 22.4829C22.4881 22.4168 22.4998 22.3515 22.5225 22.2905C22.5452 22.2295 22.5784 22.1741 22.6204 22.1274C22.6623 22.0808 22.7121 22.0438 22.7668 22.0185C22.8216 21.9933 22.8803 21.9804 22.9395 21.9805H33.6464C33.7659 21.9806 33.8805 22.0336 33.9649 22.1278C34.0494 22.222 34.0968 22.3497 34.0968 22.4829C34.0968 22.616 34.0494 22.7437 33.9649 22.8379C33.8805 22.9321 33.7659 22.9851 33.6464 22.9853Z" fill="#E6E6E6"/>
<path d="M35.5064 24.6806H22.9395C22.8803 24.6806 22.8216 24.6677 22.7668 24.6425C22.7121 24.6173 22.6623 24.5803 22.6204 24.5336C22.5784 24.487 22.5452 24.4316 22.5225 24.3706C22.4998 24.3096 22.4881 24.2442 22.4881 24.1782C22.4881 24.1122 22.4998 24.0468 22.5225 23.9858C22.5452 23.9248 22.5784 23.8694 22.6204 23.8227C22.6623 23.7761 22.7121 23.7391 22.7668 23.7139C22.8216 23.6886 22.8803 23.6757 22.9395 23.6758H35.5064C35.626 23.6758 35.7407 23.7287 35.8252 23.8229C35.9098 23.9171 35.9573 24.0449 35.9573 24.1782C35.9573 24.3114 35.9098 24.4392 35.8252 24.5334C35.7407 24.6276 35.626 24.6806 35.5064 24.6806Z" fill="#E6E6E6"/>
<path d="M33.6464 30.5839H22.9395C22.8803 30.584 22.8216 30.571 22.7668 30.5458C22.7121 30.5206 22.6623 30.4836 22.6204 30.4369C22.5784 30.3903 22.5452 30.3349 22.5225 30.2739C22.4998 30.2129 22.4881 30.1475 22.4881 30.0815C22.4881 30.0155 22.4998 29.9501 22.5225 29.8891C22.5452 29.8281 22.5784 29.7727 22.6204 29.7261C22.6623 29.6794 22.7121 29.6424 22.7668 29.6172C22.8216 29.592 22.8803 29.579 22.9395 29.5791H33.6464C33.766 29.5791 33.8807 29.632 33.9653 29.7263C34.0498 29.8205 34.0973 29.9483 34.0973 30.0815C34.0973 30.2147 34.0498 30.3425 33.9653 30.4367C33.8807 30.531 33.766 30.5839 33.6464 30.5839Z" fill="#E6E6E6"/>
<path d="M35.5064 32.2797H22.9395C22.8803 32.2798 22.8216 32.2668 22.7668 32.2416C22.7121 32.2164 22.6623 32.1794 22.6204 32.1327C22.5784 32.0861 22.5452 32.0307 22.5225 31.9697C22.4998 31.9087 22.4881 31.8433 22.4881 31.7773C22.4881 31.7113 22.4998 31.6459 22.5225 31.5849C22.5452 31.5239 22.5784 31.4685 22.6204 31.4219C22.6623 31.3752 22.7121 31.3382 22.7668 31.313C22.8216 31.2878 22.8803 31.2748 22.9395 31.2749H35.5064C35.5656 31.2748 35.6243 31.2878 35.6791 31.313C35.7338 31.3382 35.7836 31.3752 35.8255 31.4219C35.8675 31.4685 35.9007 31.5239 35.9234 31.5849C35.9461 31.6459 35.9578 31.7113 35.9578 31.7773C35.9578 31.8433 35.9461 31.9087 35.9234 31.9697C35.9007 32.0307 35.8675 32.0861 35.8255 32.1327C35.7836 32.1794 35.7338 32.2164 35.6791 32.2416C35.6243 32.2668 35.5656 32.2798 35.5064 32.2797Z" fill="#E6E6E6"/>
<path d="M20.5411 25.4503H16.752C16.6947 25.4502 16.6398 25.4248 16.5992 25.3796C16.5587 25.3345 16.5359 25.2732 16.5358 25.2094V21.4513C16.5359 21.3875 16.5587 21.3262 16.5992 21.2811C16.6398 21.2359 16.6947 21.2105 16.752 21.2104H20.5411C20.5984 21.2105 20.6534 21.2359 20.6939 21.2811C20.7345 21.3262 20.7573 21.3875 20.7573 21.4513V25.2094C20.7573 25.2732 20.7345 25.3345 20.6939 25.3796C20.6534 25.4248 20.5984 25.4502 20.5411 25.4503Z" fill="#E6E6E6"/>
<path d="M20.5411 33.0494H16.752C16.6947 33.0493 16.6398 33.0239 16.5992 32.9788C16.5587 32.9336 16.5359 32.8724 16.5358 32.8085V29.0505C16.5359 28.9866 16.5587 28.9254 16.5992 28.8802C16.6398 28.835 16.6947 28.8096 16.752 28.8096H20.5411C20.5984 28.8096 20.6534 28.835 20.6939 28.8802C20.7345 28.9254 20.7573 28.9866 20.7573 29.0505V32.8085C20.7573 32.8724 20.7345 32.9336 20.6939 32.9788C20.6534 33.0239 20.5984 33.0493 20.5411 33.0494Z" fill="#E6E6E6"/>
<path d="M33.6583 14.5263H25.7645C25.645 14.5263 25.5303 14.4733 25.4457 14.3791C25.3612 14.2849 25.3137 14.1571 25.3137 14.0239C25.3137 13.8906 25.3612 13.7628 25.4457 13.6686C25.5303 13.5744 25.645 13.5215 25.7645 13.5215H33.6583C33.7779 13.5215 33.8926 13.5744 33.9771 13.6686C34.0617 13.7628 34.1092 13.8906 34.1092 14.0239C34.1092 14.1571 34.0617 14.2849 33.9771 14.3791C33.8926 14.4733 33.7779 14.5263 33.6583 14.5263Z" fill="#CCCCCC"/>
<path d="M35.5183 16.2221H25.7645C25.7053 16.2221 25.6467 16.2091 25.592 16.1838C25.5373 16.1586 25.4876 16.1216 25.4457 16.0749C25.4038 16.0283 25.3706 15.9729 25.348 15.9119C25.3253 15.851 25.3137 15.7857 25.3137 15.7197C25.3137 15.6537 25.3253 15.5884 25.348 15.5274C25.3706 15.4665 25.4038 15.4111 25.4457 15.3644C25.4876 15.3178 25.5373 15.2808 25.592 15.2555C25.6467 15.2303 25.7053 15.2173 25.7645 15.2173H35.5183C35.6378 15.2173 35.7525 15.2702 35.8371 15.3644C35.9217 15.4586 35.9692 15.5864 35.9692 15.7197C35.9692 15.8529 35.9217 15.9807 35.8371 16.0749C35.7525 16.1691 35.6378 16.2221 35.5183 16.2221Z" fill="#CCCCCC"/>
<path d="M24.0175 18.2769H16.7402C16.6828 18.2768 16.6279 18.2514 16.5874 18.2062C16.5468 18.1611 16.524 18.0998 16.524 18.036V11.7077C16.524 11.6438 16.5468 11.5826 16.5874 11.5374C16.6279 11.4923 16.6828 11.4669 16.7402 11.4668H24.0175C24.0749 11.4669 24.1298 11.4923 24.1703 11.5374C24.2109 11.5826 24.2337 11.6438 24.2337 11.7077V18.036C24.2337 18.0998 24.2109 18.1611 24.1703 18.2062C24.1298 18.2514 24.0749 18.2768 24.0175 18.2769Z" fill="#6C63FF"/>
</g>
<defs>
<clipPath id="clip0_384_2305">
<rect width="44" height="44" fill="white"/>
</clipPath>
</defs>
</svg>
